<?xml version="1.0" encoding="UTF-8" standalone="no"?>
<svg width="24px" height="25px" viewBox="0 0 24 25" version="1.1" xmlns="http://www.w3.org/2000/svg" xmlns:xlink="http://www.w3.org/1999/xlink">
    <!-- Generator: sketchtool 3.8.2 (29753) - http://www.bohemiancoding.com/sketch -->
    <title>145C1906-C10B-4DF5-BF12-D4B5372FBAA9</title>
    <desc>Created with sketchtool.</desc>
    <defs>
        <filter x="-50%" y="-50%" width="200%" height="200%" filterUnits="objectBoundingBox" id="filter-1">
            <feOffset dx="0" dy="1" in="SourceAlpha" result="shadowOffsetOuter1"></feOffset>
            <feColorMatrix values="0 0 0 0 0   0 0 0 0 0   0 0 0 0 0  0 0 0 0.07 0" type="matrix" in="shadowOffsetOuter1" result="shadowMatrixOuter1"></feColorMatrix>
            <feMerge>
                <feMergeNode in="shadowMatrixOuter1"></feMergeNode>
                <feMergeNode in="SourceGraphic"></feMergeNode>
            </feMerge>
        </filter>
    </defs>
    <g id="Symbols" stroke="none" stroke-width="1" fill="none" fill-rule="evenodd">
        <g id="Top-1260" transform="translate(-1129.000000, -48.000000)" fill="#000000">
            <g id="Top" filter="url(#filter-1)">
                <g id="Icons02" transform="translate(1051.000000, 47.000000)">
                    <path d="M99.1924996,7.28423773 C99.1305694,6.87080103 98.7796319,6.58139535 98.3667641,6.58139535 L93.6187855,6.58139535 L93.6187855,4.63824289 C93.6187855,2.63307494 91.987958,1 89.9855496,1 C87.9831412,1 86.3523138,2.63307494 86.3523138,4.63824289 L86.3523138,6.58139535 L81.6043351,6.58139535 C81.1914674,6.58139535 80.8405298,6.87080103 80.7785997,7.28423773 L78.012386,24.0284238 C77.9710993,24.2764858 78.0330294,24.5245478 78.1981765,24.7105943 C78.3633236,24.8966408 78.5904008,25 78.8381215,25 L101.132978,25 L101.153621,25 C101.628419,25 102,24.627907 102,24.1524548 C102,24.0490956 101.979357,23.9664083 101.958713,23.8837209 L99.1924996,7.28423773 L99.1924996,7.28423773 Z M88.0450714,4.63824289 C88.0450714,3.56330749 88.9120936,2.69509044 89.9855496,2.69509044 C91.0590057,2.69509044 91.9260279,3.56330749 91.9260279,4.63824289 L91.9260279,6.58139535 L88.0450714,6.58139535 L88.0450714,4.63824289 L88.0450714,4.63824289 Z M79.829004,23.3255814 L82.3268536,8.27648579 L86.3523138,8.27648579 L86.3523138,13.0103359 C86.3523138,13.4857881 86.7238947,13.8578811 87.1986926,13.8578811 C87.6734905,13.8578811 88.0450714,13.4857881 88.0450714,13.0103359 L88.0450714,8.27648579 L91.9260279,8.27648579 L91.9260279,13.0103359 C91.9260279,13.4857881 92.2976088,13.8578811 92.7724067,13.8578811 C93.2472045,13.8578811 93.6187855,13.4857881 93.6187855,13.0103359 L93.6187855,8.27648579 L97.6442457,8.27648579 L100.142095,23.3255814 L79.829004,23.3255814 L79.829004,23.3255814 Z" id="bag"></path>
                </g>
            </g>
        </g>
    </g>
</svg>