<?xml version="1.0" encoding="UTF-8" standalone="no"?>
<svg width="196px" height="152px" viewBox="0 0 196 152" version="1.1" xmlns="http://www.w3.org/2000/svg" xmlns:xlink="http://www.w3.org/1999/xlink">
    <!-- Generator: sketchtool 3.8.2 (29753) - http://www.bohemiancoding.com/sketch -->
    <title>DE9EBF79-C11A-4EDC-BC0E-0CDF561F5B2A</title>
    <desc>Created with sketchtool.</desc>
    <defs>
        <filter x="-50%" y="-50%" width="200%" height="200%" filterUnits="objectBoundingBox" id="filter-1">
            <feOffset dx="0" dy="2" in="SourceAlpha" result="shadowOffsetOuter1"></feOffset>
            <feColorMatrix values="0 0 0 0 0   0 0 0 0 0   0 0 0 0 0  0 0 0 0.1 0" type="matrix" in="shadowOffsetOuter1" result="shadowMatrixOuter1"></feColorMatrix>
            <feMerge>
                <feMergeNode in="shadowMatrixOuter1"></feMergeNode>
                <feMergeNode in="SourceGraphic"></feMergeNode>
            </feMerge>
        </filter>
        <polygon id="path-2" points="0.256406354 0.20978196 0.256406354 18.4648056 137.133502 18.4648056 137.133502 0.20978196 0.256406354 0.20978196"></polygon>
        <path d="M0.256406354,0.206226459 L0.256406354,10.4873617 C0.256406354,12.6192951 2.00065331,14.3642258 4.13258667,14.3642258 L137.159211,14.3642258 L137.159211,0.206226459 L0.256406354,0.206226459 L0.256406354,0.206226459 Z" id="path-4"></path>
    </defs>
    <g id="Symbols" stroke="none" stroke-width="1" fill="none" fill-rule="evenodd">
        <g id="Gift-Card-1260" transform="translate(-611.000000, -1.000000)">
            <g id="Card">
                <g filter="url(#filter-1)" transform="translate(709.324111, 76.911394) rotate(-20.000000) translate(-709.324111, -76.911394) translate(621.824111, 26.911394)">
                    <g id="Group-17" transform="translate(0.000000, 0.495719)">
                        <path d="M170.817024,97.097599 L4.13238155,97.097599 C2.00044818,97.097599 0.256201229,95.3533521 0.256201229,93.2214187 L0.256201229,4.06448514 C0.256201229,1.93255178 2.00044818,0.188304826 4.13238155,0.188304826 L170.817024,0.188304826 C172.948957,0.188304826 174.693204,1.93255178 174.693204,4.06448514 L174.693204,93.2214187 C174.693204,95.3533521 172.948957,97.097599 170.817024,97.097599" id="Fill-1" fill="#FEFEFE"></path>
                        <polygon id="Fill-3" fill="#1D1C1B" points="160.947431 60.1150508 142.189426 60.1150508 142.189426 51.205101 143.805127 51.205101 143.805127 58.2914888 160.947431 58.2914888"></polygon>
                        <path d="M143.804922,47.7408118 L151.360363,47.7408118 L151.360363,44.9791444 C151.360363,41.9925232 150.118672,40.4978451 147.635291,40.4978451 C145.082168,40.4978451 143.804922,42.0444883 143.804922,45.1350395 L143.804922,47.7408118 Z M160.947225,49.5643738 L142.189904,49.5643738 L142.189904,44.9791444 C142.189904,40.6715177 143.979279,38.5183881 147.55666,38.5183881 C149.415093,38.5183881 150.804474,39.1262421 151.724802,40.3419501 C152.558977,41.4188568 152.975381,42.9121674 152.975381,44.8225656 L152.975381,47.7408118 L160.947225,47.7408118 L160.947225,49.5643738 Z" id="Fill-5" fill="#1D1C1B"></path>
                        <polygon id="Fill-7" fill="#1D1C1B" points="160.947431 34.714822 160.947431 36.538384 142.189426 36.538384 142.189426 34.714822 150.474428 34.714822 150.474428 25.7002584 142.189426 25.7002584 142.189426 23.8766964 160.947431 23.8766964 160.947431 25.7002584 152.089446 25.7002584 152.089446 34.714822"></polygon>
                        <path d="M48.7462666,47.3335018 C48.7462666,51.1016496 47.4423548,54.2209183 44.835215,56.6933593 C42.2280752,59.1664841 39.0404314,60.4027046 35.2729674,60.4027046 C31.7407135,60.4027046 28.8552873,59.3688741 26.6187401,57.2991621 C24.3808255,55.2308175 23.111785,52.4301763 22.8088836,48.8972387 L28.9810974,48.8972387 C29.250495,50.5464443 29.9752703,51.8920649 31.156107,52.9341003 C32.3369437,53.9775032 33.7700843,54.4985209 35.4562125,54.4985209 C37.4794295,54.4985209 39.1580365,53.8175057 40.4906658,52.4547913 C41.8226113,51.0927608 42.4892678,49.4018464 42.4892678,47.3834155 C42.4892678,45.2979772 41.8308163,43.6159515 40.5152808,42.3373385 C39.1997452,41.0594092 37.4958395,40.4201027 35.4042475,40.4201027 C32.7054851,40.4201027 30.7827793,41.4792319 29.6361301,43.5988578 L24.3227067,42.4385335 L27.6532543,23.3632683 L45.314524,23.3632683 L45.314524,29.1163432 L32.2952349,29.1163432 L30.7314981,36.7866538 C32.2453212,35.474537 34.2131545,34.8188205 36.6356817,34.8188205 C40.0332368,34.8188205 42.9002017,36.055041 45.2393114,38.527482 C47.5770536,40.999923 48.7462666,43.9359467 48.7462666,47.3335018" id="Fill-9" fill="#1D1C1B"></path>
                        <path d="M71.6058161,47.3555185 L71.6058161,35.6538163 C71.6058161,30.8251718 69.503284,28.4101659 65.297536,28.4101659 C61.0924718,28.4101659 58.9906235,30.8251718 58.9906235,35.6538163 L58.9906235,48.1151651 C58.9906235,50.0741096 59.55335,51.652889 60.6801704,52.8515033 C61.8076746,54.0508012 63.3467965,54.6504502 65.297536,54.6504502 C69.503284,54.6504502 71.6058161,52.2183505 71.6058161,47.3555185 L71.6058161,47.3555185 Z M78.0645212,47.0813347 C78.0645212,51.050505 76.9547945,54.2463538 74.7339736,56.6688811 C72.4133252,59.1590996 69.2838002,60.4028413 65.3488173,60.4028413 C61.4459707,60.4028413 58.3342232,59.124912 56.012891,56.567686 C53.7585664,54.1123388 52.6317459,50.9158062 52.6317459,46.9801396 L52.6317459,36.0804765 C52.6317459,32.1113061 53.7674551,28.8812698 56.0381898,26.3910513 C58.3089245,23.9022003 61.412467,22.657091 65.3488173,22.657091 C69.1832889,22.657091 72.2615326,23.9022003 74.5828648,26.3910513 C76.904197,28.8812698 78.0645212,32.0607086 78.0645212,35.9286839 L78.0645212,47.0813347 Z" id="Fill-11" fill="#1D1C1B"></path>
                        <path d="M101.176033,47.3555185 L101.176033,35.6538163 C101.176033,30.8251718 99.0735006,28.4101659 94.8677526,28.4101659 C90.6626884,28.4101659 88.5608401,30.8251718 88.5608401,35.6538163 L88.5608401,48.1151651 C88.5608401,50.0741096 89.1235666,51.652889 90.250387,52.8515033 C91.3778912,54.0508012 92.9170131,54.6504502 94.8677526,54.6504502 C99.0735006,54.6504502 101.176033,52.2183505 101.176033,47.3555185 L101.176033,47.3555185 Z M107.634738,47.0813347 C107.634738,51.050505 106.525011,54.2463538 104.30419,56.6688811 C101.983542,59.1590996 98.8540167,60.4028413 94.9190339,60.4028413 C91.0161873,60.4028413 87.9044398,59.124912 85.5831076,56.567686 C83.328783,54.1123388 82.2019625,50.9158062 82.2019625,46.9801396 L82.2019625,36.0804765 C82.2019625,32.1113061 83.3376717,28.8812698 85.6084064,26.3910513 C87.8791411,23.9022003 90.9826836,22.657091 94.9190339,22.657091 C98.7535055,22.657091 101.831749,23.9022003 104.153081,26.3910513 C106.474414,28.8812698 107.634738,32.0607086 107.634738,35.9286839 L107.634738,47.0813347 Z" id="Fill-13" fill="#1D1C1B"></path>
                        <path d="M130.746181,47.3555185 L130.746181,35.6538163 C130.746181,30.8251718 128.643649,28.4101659 124.437901,28.4101659 C120.232837,28.4101659 118.130988,30.8251718 118.130988,35.6538163 L118.130988,48.1151651 C118.130988,50.0741096 118.693715,51.652889 119.820535,52.8515033 C120.948039,54.0508012 122.487161,54.6504502 124.437901,54.6504502 C128.643649,54.6504502 130.746181,52.2183505 130.746181,47.3555185 L130.746181,47.3555185 Z M137.204886,47.0813347 C137.204886,51.050505 136.095159,54.2463538 133.874338,56.6688811 C131.55369,59.1590996 128.424165,60.4028413 124.489182,60.4028413 C120.586336,60.4028413 117.474588,59.124912 115.153256,56.567686 C112.898931,54.1123388 111.772111,50.9158062 111.772111,46.9801396 L111.772111,36.0804765 C111.772111,32.1113061 112.90782,28.8812698 115.178555,26.3910513 C117.449289,23.9022003 120.552832,22.657091 124.489182,22.657091 C128.323654,22.657091 131.401897,23.9022003 133.72323,26.3910513 C136.044562,28.8812698 137.204886,32.0607086 137.204886,35.9286839 L137.204886,47.0813347 Z" id="Fill-15" fill="#1D1C1B"></path>
                    </g>
                    <g id="Group-24" transform="translate(0.000000, 66.135746)">
                        <g id="Group-20">
                            <mask id="mask-3" fill="white">
                                <use xlink:href="#path-2"></use>
                            </mask>
                            <g id="Clip-19"></g>
                            <path d="M67.5619118,5.13017833 L67.5619118,5.10146081 C44.3574787,-11.8432385 21.1530456,22.0454764 -2.05138758,5.10146081 L-2.05138758,13.5731267 C21.1393706,30.5075698 44.3301287,-3.3291801 67.5202031,13.5444092 L67.5202031,13.5731267 C90.7246362,30.5178261 113.929069,-3.37088886 137.133502,13.5731267 L137.133502,5.10146081 C113.943428,-11.8329823 90.75267,22.0037677 67.5619118,5.13017833" id="Fill-18" fill="#ED6990" mask="url(#mask-3)"></path>
                        </g>
                        <g id="Group-23" transform="translate(0.000000, 17.093757)">
                            <mask id="mask-5" fill="white">
                                <use xlink:href="#path-4"></use>
                            </mask>
                            <g id="Clip-22"></g>
                            <path d="M67.5876208,5.12662282 L67.5876208,5.09790531 C44.3831877,-11.846794 21.1787546,22.0419209 -2.02567857,5.09790531 L-2.02567857,13.5695712 C21.1650796,30.5040143 44.3551539,-3.3327356 67.5459121,13.5408537 L67.5459121,13.5695712 C90.7503452,30.5142706 113.954778,-3.37444437 137.159211,13.5695712 L137.159211,5.09790531 C113.968453,-11.8365378 90.778379,22.0002122 67.5876208,5.12662282" id="Fill-21" fill="#7A91C5" mask="url(#mask-5)"></path>
                        </g>
                    </g>
                </g>
            </g>
        </g>
    </g>
</svg>