<?xml version="1.0" encoding="UTF-8" standalone="no"?>
<svg width="28px" height="28px" viewBox="0 0 28 28" version="1.1" xmlns="http://www.w3.org/2000/svg" xmlns:xlink="http://www.w3.org/1999/xlink">
    <!-- Generator: sketchtool 39.1 (31720) - http://www.bohemiancoding.com/sketch -->
    <title>6CD3739F-C12B-4204-9341-97F0C1E02C70</title>
    <desc>Created with sketchtool.</desc>
    <defs></defs>
    <g id="Catalog" stroke="none" stroke-width="1" fill="none" fill-rule="evenodd">
        <g id="Catalog-Tablet-Filters" transform="translate(-6.000000, -7.000000)" fill="#FFFFFF">
            <path d="M6.98795181,35 C7.25301205,35 7.4939759,34.9036145 7.68674699,34.7108434 L20,22.3975904 L32.313253,34.7108434 C32.5060241,34.9036145 32.746988,35 33.0120482,35 C33.253012,35 33.5180723,34.9036145 33.7108434,34.7108434 C34.0963855,34.3253012 34.0963855,33.6987952 33.7108434,33.313253 L21.3975904,21 L33.7108434,8.68674699 C34.0963855,8.30120482 34.0963855,7.6746988 33.7108434,7.28915663 C33.3253012,6.90361446 32.6987952,6.90361446 32.313253,7.28915663 L20,19.6024096 L7.68674699,7.28915663 C7.30120482,6.90361446 6.6746988,6.90361446 6.28915663,7.28915663 C5.90361446,7.6746988 5.90361446,8.30120482 6.28915663,8.68674699 L18.6024096,21 L6.28915663,33.313253 C5.90361446,33.6987952 5.90361446,34.3253012 6.28915663,34.7108434 C6.48192771,34.9036145 6.72289157,35 6.98795181,35 Z" id="cancel"></path>
        </g>
    </g>
</svg>