<?xml version="1.0" encoding="UTF-8" standalone="no"?>
<svg width="40px" height="40px" viewBox="0 0 40 40" version="1.1" xmlns="http://www.w3.org/2000/svg" xmlns:xlink="http://www.w3.org/1999/xlink">
    <!-- Generator: sketchtool 3.8.2 (29753) - http://www.bohemiancoding.com/sketch -->
    <title>92A339DB-FED2-400C-AFEE-D7403ADFE309</title>
    <desc>Created with sketchtool.</desc>
    <defs>
        <circle id="path-1" cx="20" cy="20" r="20"></circle>
        <mask id="mask-2" maskContentUnits="userSpaceOnUse" maskUnits="objectBoundingBox" x="0" y="0" width="40" height="40" fill="white">
            <use xlink:href="#path-1"></use>
        </mask>
    </defs>
    <g id="Symbols" stroke="none" stroke-width="1" fill="none" fill-rule="evenodd">
        <g id="Footer-1900" transform="translate(-1514.000000, -170.000000)">
            <g id="Footer">
                <g id="Right" transform="translate(1454.000000, 142.000000)">
                    <g id="Social" transform="translate(29.000000, 0.000000)">
                        <g id="facebook" transform="translate(31.000000, 28.000000)">
                            <use id="Oval" stroke="#000000" mask="url(#mask-2)" stroke-width="4" xlink:href="#path-1"></use>
                            <path d="M21.195187,31.8181818 L16.7611289,31.8181818 L16.7611289,21.3623167 L14.5454545,21.3623167 L14.5454545,17.7595763 L16.7611289,17.7595763 L16.7611289,15.5966124 C16.7611289,12.6576737 18.0115522,10.9090909 21.5663853,10.9090909 L24.5251335,10.9090909 L24.5251335,14.5131509 L22.6759158,14.5131509 C21.2920508,14.5131509 21.2006059,15.0166108 21.2006059,15.9562266 L21.1945096,17.7595763 L24.5454545,17.7595763 L24.1532578,21.3623167 L21.1945096,21.3623167 L21.1945096,31.8181818 L21.195187,31.8181818 Z" id="Shape" fill="#000000"></path>
                        </g>
                    </g>
                </g>
            </g>
        </g>
    </g>
</svg>