<?xml version="1.0" encoding="UTF-8" standalone="no"?>
<svg width="40px" height="40px" viewBox="0 0 40 40" version="1.1" xmlns="http://www.w3.org/2000/svg" xmlns:xlink="http://www.w3.org/1999/xlink">
    <!-- Generator: sketchtool 3.8.2 (29753) - http://www.bohemiancoding.com/sketch -->
    <title>DB0981D9-9954-4FB5-92AC-55CB1D7D90E1</title>
    <desc>Created with sketchtool.</desc>
    <defs>
        <circle id="path-1" cx="20" cy="20" r="20"></circle>
        <mask id="mask-2" maskContentUnits="userSpaceOnUse" maskUnits="objectBoundingBox" x="0" y="0" width="40" height="40" fill="white">
            <use xlink:href="#path-1"></use>
        </mask>
    </defs>
    <g id="Symbols" stroke="none" stroke-width="1" fill="none" fill-rule="evenodd">
        <g id="Footer-1900" transform="translate(-1617.000000, -170.000000)">
            <g id="Footer">
                <g id="Right" transform="translate(1454.000000, 142.000000)">
                    <g id="Social" transform="translate(29.000000, 0.000000)">
                        <g id="googleplus" transform="translate(134.000000, 28.000000)">
                            <use id="Oval" stroke="#000000" mask="url(#mask-2)" stroke-width="4" xlink:href="#path-1"></use>
                            <path d="M16.5983379,19.0065625 L16.5983379,21.9850501 C16.5983379,21.9850501 19.4825213,21.9809499 20.6569299,21.9809499 C20.0208163,23.9121345 19.0320873,24.9635377 16.5983379,24.9635377 C14.1353014,24.9635377 12.2129029,22.9632358 12.2129029,20.4955135 C12.2129029,18.0283768 14.1353014,16.028075 16.5983379,16.028075 C17.9004377,16.028075 18.7415603,16.4867093 19.5129798,17.1257516 C20.1303497,16.5072102 20.0788045,16.4187635 21.6497591,14.9327413 C20.3160292,13.7161594 18.5435802,12.9751984 16.5983379,12.9751984 C12.4524706,12.9751984 9.09090909,16.3420316 9.09090909,20.4955135 C9.09090909,24.6489953 12.4524706,28.0164142 16.5983379,28.0164142 C22.7954664,28.0164142 24.3101898,22.6106204 23.8082107,19.0065625 L16.5983379,19.0065625 Z M30.1260017,19.1553405 L30.1260017,16.5493835 L28.2680346,16.5493835 L28.2680346,19.1553405 L25.5917888,19.1553405 L25.5917888,21.016822 L28.2680346,21.016822 L28.2680346,23.6977537 L30.1260017,23.6977537 L30.1260017,21.016822 L32.7272727,21.016822 L32.7272727,19.1553405 L30.1260017,19.1553405 Z" id="Google+" fill="#000000"></path>
                        </g>
                    </g>
                </g>
            </g>
        </g>
    </g>
</svg>