<?xml version="1.0" encoding="UTF-8" standalone="no"?>
<svg width="53px" height="53px" viewBox="0 0 53 53" version="1.1" xmlns="http://www.w3.org/2000/svg" xmlns:xlink="http://www.w3.org/1999/xlink">
    <!-- Generator: sketchtool 3.8.2 (29753) - http://www.bohemiancoding.com/sketch -->
    <title>19D2DEBA-BF26-4714-980C-C46F43060D85</title>
    <desc>Created with sketchtool.</desc>
    <defs></defs>
    <g id="Main" stroke="none" stroke-width="1" fill="none" fill-rule="evenodd">
        <g id="Main-1260" transform="translate(-46.000000, -1885.000000)" fill="#000000">
            <g id="Advantages" transform="translate(-1.000000, 1870.000000)">
                <g id="01" transform="translate(46.000000, 15.000000)">
                    <path d="M53.6643027,29.2367476 L52.8027065,27.1436114 C52.634863,26.7294615 52.634863,26.2705385 52.8027065,25.8563886 L53.6643027,23.7632524 C54.3468659,22.1290391 53.9664208,20.2597677 52.7243795,19.0061246 L51.1130827,17.4166843 C50.799775,17.1032735 50.620742,16.6779303 50.620742,16.2302006 L50.620742,13.9691658 C50.620742,12.2006336 49.5689232,10.6111932 47.9240577,9.93959873 L45.8316097,9.07771911 C45.417596,8.90982049 45.0930987,8.58521647 44.9252553,8.17106653 L44.0636591,6.06673706 C43.3810958,4.43252376 41.8033677,3.36916579 40.035417,3.36916579 L37.7751256,3.36916579 C37.3275431,3.36916579 36.9023398,3.19007392 36.5890321,2.87666315 L34.9889248,1.27602957 C34.1608973,0.447729673 33.0643203,0 31.9006059,0 C31.3299382,0 30.7592706,0.111932418 30.2333612,0.335797254 L28.1409133,1.19767687 C27.7268995,1.3655755 27.2681275,1.3655755 26.8541137,1.19767687 L24.7616657,0.335797254 C24.2245668,0.111932418 23.6650887,9.94159583e-17 23.0944211,9.94159583e-17 C21.9307067,9.94159583e-17 20.8341297,0.458922914 20.0061022,1.27602957 L18.4059949,2.87666315 C18.0926872,3.19007392 17.6674839,3.36916579 17.2199014,3.36916579 L14.95961,3.36916579 C13.1916593,3.36916579 11.6027416,4.43252376 10.9313679,6.06673706 L10.0697717,8.15987328 C9.90192828,8.57402323 9.577431,8.89862724 9.16341723,9.06652587 L7.07096926,9.92840549 C5.43729331,10.6111932 4.37428498,12.1894403 4.37428498,13.9579725 L4.37428498,16.2190074 C4.37428498,16.6667371 4.195252,17.0920803 3.88194428,17.405491 L2.28183701,19.0061246 C1.02860614,20.2597677 0.659350616,22.1290391 1.3307243,23.7632524 L2.19232052,25.8563886 C2.36016394,26.2705385 2.36016394,26.7294615 2.19232052,27.1436114 L1.3307243,29.2367476 C0.659350616,30.8709609 1.02860614,32.7402323 2.27064745,33.9938754 L3.89313384,35.594509 C4.20644156,35.9079197 4.38547454,36.3332629 4.38547454,36.7809926 L4.38547454,39.0420275 C4.38547454,40.8105597 5.43729331,42.4 7.08215883,43.0715945 L9.1746068,43.9334741 C9.58862057,44.1013728 9.91311784,44.4259768 10.0809613,44.8401267 L10.9425575,46.9332629 C11.6251207,48.5674762 13.2028489,49.6308342 14.9707996,49.6308342 L17.231091,49.6308342 C17.6786734,49.6308342 18.1038767,49.8099261 18.4171845,50.1233369 L20.0172917,51.7239704 C20.8453193,52.5522703 21.9418963,53 23.1056107,53 C23.6762783,53 24.2469459,52.8880676 24.7728553,52.6642027 L26.8653033,51.8023231 C27.279317,51.6344245 27.7380891,51.6344245 28.1521028,51.8023231 L30.2445508,52.6642027 C30.7816497,52.8880676 31.3411278,53 31.9117954,53 C33.0755098,53 34.1720868,52.5410771 35.0001144,51.7239704 L36.6002216,50.1233369 C36.9135294,49.8099261 37.3387327,49.6308342 37.7863151,49.6308342 L40.0466065,49.6308342 C41.8145572,49.6308342 43.4034749,48.5674762 44.0748486,46.9332629 L44.9364448,44.8401267 C45.1042883,44.4259768 45.4287855,44.1013728 45.8427993,43.9334741 L47.9352473,43.0715945 C49.5689232,42.3888068 50.6319316,40.8105597 50.6319316,39.0420275 L50.6319316,36.7809926 C50.6319316,36.3332629 50.8109645,35.9079197 51.1242723,35.594509 L52.7243795,33.9938754 C53.9664208,32.7402323 54.3356764,30.8709609 53.6643027,29.2367476 L53.6643027,29.2367476 Z M49.8595011,31.860353 L48.3254763,33.3948823 C47.5316453,34.1889745 47.1025475,35.229879 47.1025475,36.3566313 L47.1025475,38.5242882 C47.1025475,39.1788776 46.7163594,39.7583503 46.104895,40.0051627 L44.0988626,40.8314477 C43.0690277,41.2606867 42.2644693,42.0655098 41.8353714,43.0956834 L41.0093581,45.1023756 C40.7626268,45.7033102 40.1726173,46.1003563 39.5289705,46.1003563 L37.3620264,46.1003563 C36.246372,46.1003563 35.1950823,46.5403262 34.4012512,47.3236874 L32.8672265,48.8582168 C32.566858,49.158684 32.159215,49.3303796 31.7301172,49.3303796 C31.5155682,49.3303796 31.3117468,49.2874557 31.1186527,49.2123389 L29.1126203,48.3860539 C28.5977029,48.1714344 28.0613306,48.0641246 27.5142308,48.0641246 C26.9671311,48.0641246 26.4200313,48.1714344 25.9158413,48.3860539 L23.9098089,49.2123389 C23.7167149,49.2981867 23.502166,49.3303796 23.2983445,49.3303796 C22.8692466,49.3303796 22.4616037,49.158684 22.1612352,48.8582168 L20.6272104,47.3236874 C19.8333794,46.5295953 18.7928171,46.1003563 17.6664353,46.1003563 L15.4994911,46.1003563 C14.8451169,46.1003563 14.2658348,45.7140412 14.0191036,45.1023756 L13.1930902,43.0956834 C12.7639924,42.0655098 11.9594339,41.2606867 10.9295991,40.8314477 L8.92356665,40.0051627 C8.32282967,39.7583503 7.92591416,39.1681467 7.92591416,38.5242882 L7.92591416,36.3566313 C7.92591416,35.24061 7.48608887,34.1889745 6.7029853,33.3948823 L5.1689605,31.860353 C4.70768032,31.398921 4.56822352,30.7121387 4.82568223,30.1112041 L5.65169558,28.1045118 C6.08079343,27.0743383 6.08079343,25.936855 5.65169558,24.9066814 L4.82568223,22.8999891 C4.57895097,22.2990546 4.70768032,21.6122722 5.17968795,21.1508403 L6.71371275,19.6163109 C7.50754376,18.8222188 7.93664161,17.7705833 7.93664161,16.6545619 L7.93664161,14.486905 C7.93664161,13.8323156 8.32282967,13.252843 8.9342941,13.0060305 L10.9403265,12.1797455 C11.9701614,11.7505065 12.7747198,10.9456834 13.2038177,9.91550985 L14.029831,7.9088176 C14.2765623,7.30788302 14.8665718,6.91083696 15.5102186,6.91083696 L17.6771627,6.91083696 C18.7928171,6.91083696 19.8441068,6.470867 20.6379378,5.68750585 L22.1719626,4.15297648 C22.4723311,3.85250919 22.8799741,3.6808136 23.3090719,3.6808136 C23.5236209,3.6808136 23.7274423,3.7237375 23.9205364,3.79885432 L25.9265688,4.62513937 C26.4414862,4.83975886 26.9778585,4.9470686 27.5249583,4.9470686 C28.072058,4.9470686 28.6191578,4.83975886 29.1233477,4.62513937 L31.1293802,3.79885432 C31.3224742,3.71300652 31.5370231,3.6808136 31.7408446,3.6808136 C32.1699425,3.6808136 32.5775854,3.85250919 32.8779539,4.15297648 L34.4119787,5.68750585 C35.2058097,6.48159798 36.2570994,6.91083696 37.3727538,6.91083696 L39.5182431,6.91083696 C40.1726173,6.91083696 40.7518994,7.29715205 40.9986306,7.9088176 L41.824644,9.91550985 C42.2537418,10.9456834 43.0583003,11.7505065 44.0881351,12.1797455 L46.0941675,13.0060305 C46.6949045,13.252843 47.09182,13.8430466 47.09182,14.486905 L47.09182,16.6545619 C47.09182,17.7705833 47.5316453,18.8222188 48.3147489,19.6163109 L49.8487737,21.1508403 C50.3100539,21.6122722 50.4495107,22.2990546 50.192052,22.8999891 L49.3660386,24.9066814 C48.9369408,25.936855 48.9369408,27.0743383 49.3660386,28.1045118 L50.192052,30.1112041 C50.4602381,30.7121387 50.3207813,31.398921 49.8595011,31.860353 Z M24.8742451,29.6857775 L20.5623446,25.3722298 C19.8611012,24.6707186 18.7271758,24.6707186 18.0259325,25.3722298 C17.3246892,26.073741 17.3246892,27.2080996 18.0259325,27.9096108 L23.6060391,33.4918491 C23.9492007,33.8351418 24.4117229,34.0142511 24.8742451,34.0142511 C25.3367673,34.0142511 25.7843694,33.8351418 26.1424512,33.4918491 L37.9740675,21.6557129 C38.6753108,20.9542016 38.6753108,19.8198431 37.9740675,19.1183318 C37.2728242,18.4317464 36.1388988,18.4317464 35.4376554,19.1183318 L24.8742451,29.6857775 Z" id="badge"></path>
                </g>
            </g>
        </g>
    </g>
</svg>