<?xml version="1.0" encoding="UTF-8" standalone="no"?>
<svg width="60px" height="57px" viewBox="0 0 60 57" version="1.1" xmlns="http://www.w3.org/2000/svg" xmlns:xlink="http://www.w3.org/1999/xlink">
    <!-- Generator: sketchtool 3.8.2 (29753) - http://www.bohemiancoding.com/sketch -->
    <title>72DFCD39-6FBD-434D-AC81-33A30DDE510E</title>
    <desc>Created with sketchtool.</desc>
    <defs></defs>
    <g id="Main" stroke="none" stroke-width="1" fill="none" fill-rule="evenodd">
        <g id="Main-1260" transform="translate(-894.000000, -1881.000000)" fill="#000000">
            <g id="Advantages" transform="translate(-1.000000, 1870.000000)">
                <g id="05" transform="translate(894.000000, 11.000000)">
                    <path d="M52.9386863,8.98958702 C47.7414228,3.77070199 40.8281981,0.894736842 33.482897,0.894736842 C26.0018003,0.894736842 19.0021604,3.8574768 13.7802068,9.23751505 C13.2123348,9.82014592 13.2246798,10.7622724 13.8048969,11.3449033 C14.3851139,11.9151378 15.3233373,11.9027414 15.9035543,11.3201105 C20.569981,6.52270312 26.8042282,3.8822696 33.482897,3.8822696 C47.0254102,3.8698732 58.0371894,14.9274633 58.0371894,28.5263158 C58.0371894,42.1251682 47.0254102,53.1827584 33.482897,53.1827584 C19.9403837,53.1827584 8.94094954,42.1251682 8.94094954,28.5263158 L8.94094954,28.2164058 L11.3729232,30.6708932 C11.6568592,30.9560105 12.0395556,31.1047673 12.4222519,31.1047673 C12.8049483,31.1047673 13.1752996,30.9560105 13.4715807,30.6708932 C14.0517977,30.0882624 14.0517977,29.1461359 13.4715807,28.563505 L8.508873,23.5677552 C7.92865593,22.9851243 6.99043259,22.9851243 6.41021552,23.5677552 L1.4351628,28.563505 C0.854945733,29.1461359 0.854945733,30.0882624 1.4351628,30.6708932 C2.01537987,31.2535241 2.95360321,31.2535241 3.53382028,30.6708932 L5.97813898,28.2164058 L5.97813898,28.5263158 C5.97813898,35.9021747 8.84218919,42.8441595 14.0394527,48.0630446 C19.2367162,53.2819296 26.1499408,56.1578947 33.495242,56.1578947 C40.8405432,56.1578947 47.7537678,53.2819296 52.9510313,48.0630446 C58.1359498,42.8441595 61,35.9021747 61,28.5263158 C61,21.1504569 58.1359498,14.2084721 52.9386863,8.98958702 Z M33.482897,11.2457321 C32.6681241,11.2457321 32.0014917,11.9151378 32.0014917,12.7333003 L32.0014917,16.3406531 L31.0632684,16.3406531 C27.32272,16.3406531 24.2734942,19.4025643 24.2734942,23.1586739 C24.2734942,26.9147836 27.32272,29.9766948 31.0632684,29.9766948 L35.9025256,29.9766948 C38.0135281,29.9766948 39.7294892,31.6997946 39.7294892,33.8195792 C39.7294892,35.9393639 38.0135281,37.6624637 35.9025256,37.6624637 L27.1992696,37.6624637 C26.3844967,37.6624637 25.7178643,38.3318694 25.7178643,39.1500319 C25.7178643,39.9681944 26.3844967,40.6376001 27.1992696,40.6376001 L32.0014917,40.6376001 L32.0014917,44.2945385 C32.0014917,45.112701 32.6681241,45.7821067 33.482897,45.7821067 C34.2976699,45.7821067 34.9643022,45.112701 34.9643022,44.2945385 L34.9643022,40.6376001 L35.9519058,40.6376001 L35.9889409,40.6376001 C39.6924541,40.5880145 42.6922998,37.5508961 42.6922998,33.8195792 C42.6922998,30.0634696 39.6430739,27.0015584 35.9025256,27.0015584 L31.0632684,27.0015584 C28.9522658,27.0015584 27.2363047,25.2784586 27.2363047,23.1586739 C27.2363047,21.0388893 28.9522658,19.3157895 31.0632684,19.3157895 L39.6060388,19.3157895 C40.4208117,19.3157895 41.0874441,18.6463838 41.0874441,17.8282213 C41.0874441,17.0100588 40.4208117,16.3406531 39.6060388,16.3406531 L34.9643022,16.3406531 L34.9643022,12.7333003 C34.9643022,11.9151378 34.3100149,11.2457321 33.482897,11.2457321 Z" id="Payback"></path>
                </g>
            </g>
        </g>
    </g>
</svg>