<?xml version="1.0" encoding="UTF-8" standalone="no"?>
<svg width="68px" height="47px" viewBox="0 0 68 47" version="1.1" xmlns="http://www.w3.org/2000/svg" xmlns:xlink="http://www.w3.org/1999/xlink">
    <!-- Generator: sketchtool 3.8.2 (29753) - http://www.bohemiancoding.com/sketch -->
    <title>7EFF95A6-205A-4BF6-91CD-1A270672E8EE</title>
    <desc>Created with sketchtool.</desc>
    <defs></defs>
    <g id="Main" stroke="none" stroke-width="1" fill="none" fill-rule="evenodd">
        <g id="Main-1260" transform="translate(-682.000000, -1886.000000)" fill="#000000">
            <g id="Advantages" transform="translate(-1.000000, 1870.000000)">
                <g id="04" transform="translate(682.000000, 16.000000)">
                    <path d="M64.4980648,0 L16.1542066,0 C13.6746792,0 11.6522713,2.02278522 11.6522713,4.50277532 L11.6522713,11.0283359 L4.32450601,11.0283359 C2.4960277,11.0283359 1,12.5246427 1,14.3534622 L1,43.0188227 C1,44.8476422 2.4960277,46.343949 4.32450601,46.343949 L55.0232227,46.343949 C56.851701,46.343949 58.3477287,44.8476422 58.3477287,43.0188227 L58.3477287,35.3156132 L64.4980648,35.3156132 C66.9775922,35.3156132 69,33.292828 69,30.8128379 L69,4.48892062 C68.9861479,2.00893053 66.9775922,0 64.4980648,0 Z M12.3171725,27.0166519 C11.4029334,27.0166519 10.6549195,27.7648053 10.6549195,28.6792151 C10.6549195,29.5936249 11.4029334,30.3417783 12.3171725,30.3417783 L18.7029945,30.3417783 C19.6172337,30.3417783 20.3652475,29.5936249 20.3652475,28.6792151 C20.3652475,27.7648053 19.6172337,27.0166519 18.7029945,27.0166519 L12.3171725,27.0166519 Z M40.3122836,30.3417783 L46.6981055,30.3417783 C47.6123447,30.3417783 48.3603585,29.5936249 48.3603585,28.6792151 C48.3603585,27.7648053 47.6123447,27.0166519 46.6981055,27.0166519 L40.3122836,27.0166519 C39.3980444,27.0166519 38.6500306,27.7648053 38.6500306,28.6792151 C38.6500306,29.5936249 39.3980444,30.3417783 40.3122836,30.3417783 Z M45.7146058,14.3534622 C46.0886128,19.3411518 50.0503157,23.3313035 55.0232227,23.760799 L55.0232227,33.7084688 C50.0364636,34.0825455 46.0470564,38.0449878 45.6176411,43.0188227 L13.6331228,43.0188227 C13.2591159,38.0311331 9.29741292,34.0409814 4.32450601,33.6114859 L4.32450601,23.6638161 C9.31126502,23.2897394 13.3006722,19.3272971 13.7300876,14.3534622 L45.7146058,14.3534622 Z M49.0391118,14.3534622 L55.0093705,14.3534622 L55.0093705,20.4218179 C51.8787941,20.0061771 49.3992667,17.4984776 49.0391118,14.3534622 Z M10.3778774,14.3534622 C9.97616623,17.4846229 7.46893461,19.9784677 4.3106539,20.3248351 L4.3106539,14.3534622 L10.3778774,14.3534622 Z M4.32450601,36.950467 C7.4550825,37.3522531 9.94846201,39.8599526 10.2947647,43.0188227 L4.32450601,43.0188227 L4.32450601,36.950467 Z M48.9559992,43.004968 C49.3577103,39.8738073 51.8649419,37.3799625 55.0232227,37.0335952 L55.0232227,43.004968 L48.9559992,43.004968 Z M65.6616419,30.8128379 C65.6616419,31.4640085 65.1352618,31.9904868 64.4842127,31.9904868 L58.3338766,31.9904868 L58.3338766,14.3534622 C58.3338766,12.5246427 56.8378488,11.0283359 55.0093705,11.0283359 L14.9629252,11.0283359 L14.9629252,4.50277532 C14.9629252,3.85160473 15.4893054,3.32512639 16.1403545,3.32512639 L64.4842127,3.32512639 C65.1352618,3.32512639 65.6616419,3.85160473 65.6616419,4.50277532 L65.6616419,30.8128379 Z M28.2470972,30.3279236 L31.0867794,30.3279236 C31.8902017,30.3279236 32.5412508,30.9790942 32.5412508,31.7826664 C32.5412508,32.5862386 31.8902017,33.2374092 31.0867794,33.2374092 L25.9892035,33.2374092 C25.0749644,33.2374092 24.3269505,33.9855626 24.3269505,34.8999724 C24.3269505,35.8143821 25.0749644,36.5625356 25.9892035,36.5625356 L28.0116113,36.5625356 L28.0116113,37.9064408 C28.0116113,38.8208506 28.7596252,39.569004 29.6738643,39.569004 C30.5881035,39.569004 31.3361173,38.8208506 31.3361173,37.9064408 L31.3361173,36.5625356 C33.8572011,36.4378433 35.8657568,34.3457847 35.8657568,31.7965211 C35.8657568,29.1641294 33.71868,27.0166519 31.0867794,27.0166519 L28.2470972,27.0166519 C27.4436749,27.0166519 26.7926258,26.3654813 26.7926258,25.5619091 C26.7926258,24.7583369 27.4436749,24.1071663 28.2470972,24.1071663 L33.2477083,24.1071663 C34.1619474,24.1071663 34.9099613,23.3590129 34.9099613,22.4446031 C34.9099613,21.5301934 34.1619474,20.7820399 33.2477083,20.7820399 L31.3222652,20.7820399 L31.3222652,19.4796988 C31.3222652,18.565289 30.5742514,17.8171356 29.6600122,17.8171356 C28.7457731,17.8171356 27.9977592,18.565289 27.9977592,19.4796988 L27.9977592,20.7958946 C25.4766755,20.9205869 23.4681198,23.0126455 23.4681198,25.5619091 C23.4819719,28.1804461 25.6151966,30.3279236 28.2470972,30.3279236 Z" id="bills"></path>
                </g>
            </g>
        </g>
    </g>
</svg>