<?xml version="1.0" encoding="UTF-8" standalone="no"?>
<svg width="56px" height="41px" viewBox="0 0 56 41" version="1.1" xmlns="http://www.w3.org/2000/svg" xmlns:xlink="http://www.w3.org/1999/xlink">
    <!-- Generator: sketchtool 3.8.2 (29753) - http://www.bohemiancoding.com/sketch -->
    <title>AC16FB81-1EC5-4098-B72A-8BA1303E9F4A</title>
    <desc>Created with sketchtool.</desc>
    <defs></defs>
    <g id="Main" stroke="none" stroke-width="1" fill="none" fill-rule="evenodd">
        <g id="Main-1260" transform="translate(-470.000000, -1890.000000)" fill="#000000">
            <g id="Advantages" transform="translate(-1.000000, 1870.000000)">
                <g id="03" transform="translate(470.000000, 20.000000)">
                    <path d="M3.45851754,30.8223369 C1.10641412,32.214072 0.681962245,35.1770048 1.19206791,36.9746276 C1.68688235,38.7179802 3.43104112,40.7961783 6.56968423,40.7961783 L6.57673253,40.7961783 L51.1269002,40.7961783 C54.641134,40.7961783 56.2436064,38.7759642 56.7383014,37.0326115 C57.248407,35.2349887 57.248407,32.4515187 54.5277639,30.7698638 L30.9349589,16.8055514 L30.9349589,14.4279691 C30.9349589,11.731475 28.0016721,10.5608938 28.0016721,10.5608938 C26.1030517,9.63303047 26.2730471,7.6325836 26.2730471,7.6325836 C26.2730471,5.28423291 28.3702145,4.53032153 29.3051295,4.53032153 C30.8752275,4.53032153 32.4149821,5.40343549 32.5774513,7.40064773 C32.8326236,10.5320216 36.370511,9.73725785 36.370511,7.22142455 C36.370511,4.84408189 34.2081169,0.674028293 29.2769363,0.674028293 C23.9463918,0.674028293 22.4153581,5.90085167 22.4153581,7.55351455 C22.4153581,8.80005005 22.6118742,9.95110368 23.3789441,11.2647281 C24.6825209,13.4972306 27.291347,13.8481295 27.291347,15.3267206 L27.291347,16.8055514 L3.45851754,30.8223369 Z M28.9652581,20.3902545 L52.079854,33.9371782 C53.5134062,34.9554916 52.7368988,36.872317 51.1838839,36.8755517 L6.64040614,36.8755517 C5.19072647,36.9322178 4.29475633,34.8955908 5.72830855,33.997079 L28.9652581,20.3902545 Z" id="Hanger"></path>
                </g>
            </g>
        </g>
    </g>
</svg>