<?xml version="1.0" encoding="UTF-8" standalone="no"?>
<svg width="65px" height="45px" viewBox="0 0 65 45" version="1.1" xmlns="http://www.w3.org/2000/svg" xmlns:xlink="http://www.w3.org/1999/xlink">
    <!-- Generator: sketchtool 3.8.2 (29753) - http://www.bohemiancoding.com/sketch -->
    <title>5A637304-8739-40F0-8C4C-993EC9CE7DA0</title>
    <desc>Created with sketchtool.</desc>
    <defs></defs>
    <g id="Main" stroke="none" stroke-width="1" fill="none" fill-rule="evenodd">
        <g id="Main-1260" transform="translate(-258.000000, -1892.000000)" fill="#000000">
            <g id="Advantages" transform="translate(-1.000000, 1870.000000)">
                <g id="02" transform="translate(258.000000, 21.000000)">
                    <path d="M62.4592499,11.6778797 C60.2939451,9.33153445 57.2162162,8.04922948 53.7980306,8.04922948 L44.8780641,8.04922948 L44.8780641,3.02914193 C44.8780641,2.12880014 44.1426776,1.39215686 43.2438718,1.39215686 L2.63419233,1.39215686 C1.73538655,1.39215686 1,2.12880014 1,3.02914193 L1,39.0291719 C1,39.9295137 1.73538655,40.666157 2.63419233,40.666157 L9.14372512,40.666157 C9.67483763,43.6945794 12.3031636,46 15.4762204,46 C18.6492772,46 21.2776032,43.6945794 21.8087157,40.666157 L43.2438718,40.666157 L46.8254766,40.666157 C47.3565891,43.6945794 49.9849151,46 53.1579719,46 C56.3310287,46 58.9593547,43.6945794 59.4904672,40.666157 L64.3658077,40.666157 C65.2646135,40.666157 66,39.9295137 66,39.0291719 L66,22.1136595 C65.9863817,17.7892906 64.7743558,14.1742819 62.4592499,11.6778797 L62.4592499,11.6778797 Z M4.26838466,4.666127 L41.6096794,4.666127 L41.6096794,9.68621455 L41.6096794,37.4058284 L21.522732,37.4058284 C20.6375445,34.9230677 18.2543474,33.1360257 15.4762204,33.1360257 C12.6980934,33.1360257 10.3148963,34.9230677 9.42970878,37.4058284 L4.26838466,37.4058284 L4.26838466,4.666127 L4.26838466,4.666127 Z M15.4762204,42.7260299 C13.7330819,42.7260299 12.3167819,41.3073095 12.3167819,39.5611921 C12.3167819,37.8150747 13.7330819,36.3963543 15.4762204,36.3963543 C17.2193589,36.3963543 18.6356589,37.8150747 18.6356589,39.5611921 C18.6356589,41.3073095 17.2193589,42.7260299 15.4762204,42.7260299 L15.4762204,42.7260299 Z M53.1579719,42.7260299 C51.4148334,42.7260299 49.9985334,41.3073095 49.9985334,39.5611921 C49.9985334,37.8150747 51.4148334,36.3963543 53.1579719,36.3963543 C54.9011104,36.3963543 56.3174104,37.8150747 56.3174104,39.5611921 C56.3174104,41.3073095 54.9011104,42.7260299 53.1579719,42.7260299 L53.1579719,42.7260299 Z M62.7179971,37.3921868 L59.2044836,37.3921868 C58.319296,34.9094262 55.9360989,33.1223841 53.1579719,33.1223841 C50.379845,33.1223841 47.9966478,34.9094262 47.1114603,37.3921868 L44.8916824,37.3921868 L44.8916824,11.3231996 L53.8116489,11.3231996 C59.3134297,11.3231996 62.7316153,15.4565869 62.7316153,22.1136595 L62.7316153,37.3921868 L62.7179971,37.3921868 L62.7179971,37.3921868 Z" id="truck"></path>
                </g>
            </g>
        </g>
    </g>
</svg>