<?xml version="1.0" encoding="UTF-8" standalone="no"?>
<svg width="40px" height="40px" viewBox="0 0 40 40" version="1.1" xmlns="http://www.w3.org/2000/svg" xmlns:xlink="http://www.w3.org/1999/xlink">
    <!-- Generator: sketchtool 3.8.2 (29753) - http://www.bohemiancoding.com/sketch -->
    <title>3360B422-4C9B-4327-8D3C-1EDB96F65D96</title>
    <desc>Created with sketchtool.</desc>
    <defs>
        <circle id="path-1" cx="20" cy="20" r="20"></circle>
        <mask id="mask-2" maskContentUnits="userSpaceOnUse" maskUnits="objectBoundingBox" x="0" y="0" width="40" height="40" fill="white">
            <use xlink:href="#path-1"></use>
        </mask>
    </defs>
    <g id="Symbols" stroke="none" stroke-width="1" fill="none" fill-rule="evenodd">
        <g id="Footer-1900" transform="translate(-1566.000000, -170.000000)">
            <g id="Footer">
                <g id="Right" transform="translate(1454.000000, 142.000000)">
                    <g id="Social" transform="translate(29.000000, 0.000000)">
                        <g id="instagram" transform="translate(83.000000, 28.000000)">
                            <use id="Oval" stroke="#000000" mask="url(#mask-2)" stroke-width="4" xlink:href="#path-1"></use>
                            <path d="M25.5770546,10.9090909 L14.4229454,10.9090909 C12.485889,10.9090909 10.9090909,12.48482 10.9090909,14.4229454 L10.9090909,25.5770546 C10.9090909,27.51518 12.485889,29.0909091 14.4229454,29.0909091 L25.5770546,29.0909091 C27.514111,29.0909091 29.0909091,27.51518 29.0909091,25.5770546 L29.0909091,14.4229454 C29.0909091,12.48482 27.514111,10.9090909 25.5770546,10.9090909 L25.5770546,10.9090909 Z M26.5851364,13.0054306 L26.9870863,13.0032926 L26.9870863,16.0852647 L23.9147353,16.0948858 L23.9040452,13.0129137 L26.5851364,13.0054306 L26.5851364,13.0054306 Z M17.405499,18.1334987 C17.9870435,17.3274609 18.9320534,16.7993671 20,16.7993671 C21.0679466,16.7993671 22.0129565,17.3274609 22.594501,18.1334987 C22.9740015,18.6594544 23.2006329,19.3030018 23.2006329,20 C23.2006329,21.7638758 21.7649448,23.1995638 20,23.1995638 C18.2361242,23.1995638 16.8004362,21.7638758 16.8004362,20 C16.8004362,19.3030018 17.0270675,18.6594544 17.405499,18.1334987 L17.405499,18.1334987 Z M27.3195502,25.5770546 C27.3195502,26.5380997 26.5380997,27.3195502 25.5770546,27.3195502 L14.4229454,27.3195502 C13.4619003,27.3195502 12.6804498,26.5380997 12.6804498,25.5770546 L12.6804498,18.1334987 L15.3957496,18.1334987 C15.1605662,18.7107671 15.0290772,19.3404173 15.0290772,20 C15.0290772,22.7409561 17.2590439,24.9719918 20,24.9719918 C22.7420251,24.9719918 24.9719918,22.7409561 24.9719918,20 C24.9719918,19.3404173 24.8383648,18.7107671 24.6053194,18.1334987 L27.3195502,18.1334987 L27.3195502,25.5770546 L27.3195502,25.5770546 Z" id="Shape" fill="#000000"></path>
                        </g>
                    </g>
                </g>
            </g>
        </g>
    </g>
</svg>