<?xml version="1.0" encoding="UTF-8" standalone="no"?>
<svg width="308px" height="54px" viewBox="0 0 308 54" version="1.1" xmlns="http://www.w3.org/2000/svg" xmlns:xlink="http://www.w3.org/1999/xlink">
    <!-- Generator: sketchtool 3.8.2 (29753) - http://www.bohemiancoding.com/sketch -->
    <title>5F9603A8-A858-4DA6-A6C8-7426D4B470ED</title>
    <desc>Created with sketchtool.</desc>
    <defs>
        <filter x="-50%" y="-50%" width="200%" height="200%" filterUnits="objectBoundingBox" id="filter-1">
            <feOffset dx="0" dy="1" in="SourceAlpha" result="shadowOffsetOuter1"></feOffset>
            <feColorMatrix values="0 0 0 0 0   0 0 0 0 0   0 0 0 0 0  0 0 0 0.07 0" type="matrix" in="shadowOffsetOuter1" result="shadowMatrixOuter1"></feColorMatrix>
            <feMerge>
                <feMergeNode in="shadowMatrixOuter1"></feMergeNode>
                <feMergeNode in="SourceGraphic"></feMergeNode>
            </feMerge>
        </filter>
    </defs>
    <g id="Symbols" stroke="none" stroke-width="1" fill="none" fill-rule="evenodd">
        <g id="Top-1260" transform="translate(-476.000000, -40.000000)" fill="#000000">
            <g id="Top" filter="url(#filter-1)">
                <path d="M714.1055,83.7256 C714.1235,82.6946 713.6815,81.0926 711.8585,81.0926 C710.2185,81.0926 709.5015,82.6016 709.3725,83.7256 L714.1055,83.7256 Z M709.3535,84.8866 C709.3905,87.0776 710.7905,87.9796 712.4105,87.9796 C713.5715,87.9796 714.2705,87.7776 714.8785,87.5196 L715.1555,88.6806 C714.5845,88.9376 713.6075,89.2326 712.1895,89.2326 C709.4455,89.2326 707.8065,87.4276 707.8065,84.7386 C707.8065,82.0496 709.3905,79.9316 711.9875,79.9316 C714.8975,79.9316 715.6705,82.4916 715.6705,84.1306 C715.6705,84.4626 715.6335,84.7206 715.6155,84.8866 L709.3535,84.8866 Z M691.0315,86.6176 C691.0315,87.5386 691.0495,88.3486 691.1045,89.0486 L689.6685,89.0486 L689.5765,87.5936 L689.5395,87.5936 C689.1155,88.3116 688.1765,89.2506 686.5925,89.2506 C685.1925,89.2506 683.5165,88.4776 683.5165,85.3466 L683.5165,80.1346 L685.1375,80.1346 L685.1375,85.0706 C685.1375,86.7646 685.6535,87.9066 687.1265,87.9066 C688.2125,87.9066 688.9685,87.1516 689.2625,86.4336 C689.3555,86.1936 689.4105,85.8986 689.4105,85.6046 L689.4105,80.1346 L691.0315,80.1346 L691.0315,86.6176 Z M664.5485,83.7446 C664.5485,83.5226 664.5305,83.2656 664.4755,83.0626 C664.2365,82.0686 663.3705,81.2216 662.1555,81.2216 C660.4785,81.2216 659.4655,82.6396 659.4655,84.6466 C659.4655,86.4146 660.3135,87.9616 662.0995,87.9616 C663.1495,87.9616 664.0515,87.3166 664.4195,86.1936 C664.4945,85.9726 664.5485,85.6596 664.5485,85.4196 L664.5485,83.7446 Z M664.5485,87.6666 L664.5125,87.6666 C664.0335,88.5516 663.0395,89.2506 661.6025,89.2506 C659.5215,89.2506 657.8275,87.4456 657.8275,84.7386 C657.8275,81.4056 659.9815,79.9316 661.8605,79.9316 C663.2415,79.9316 664.1625,80.6136 664.6045,81.4786 L664.6415,81.4786 L664.6965,80.1346 L666.2255,80.1346 C666.1885,80.8896 666.1695,81.6626 666.1695,82.5836 L666.1695,92.6956 L664.5485,92.6956 L664.5485,87.6666 Z M639.4295,89.0486 L641.0495,89.0486 L641.0495,80.1346 L639.4295,80.1346 L639.4295,89.0486 Z M641.2345,77.6296 C641.2525,78.1826 640.8475,78.6236 640.2035,78.6236 C639.6315,78.6236 639.2265,78.1826 639.2265,77.6296 C639.2265,77.0586 639.6505,76.6166 640.2405,76.6166 C640.8475,76.6166 641.2345,77.0586 641.2345,77.6296 L641.2345,77.6296 Z M620.5525,77.5746 L620.5525,80.1346 L622.8735,80.1346 L622.8735,81.3686 L620.5525,81.3686 L620.5525,86.1756 C620.5525,87.2806 620.8665,87.9066 621.7685,87.9066 C622.1925,87.9066 622.5055,87.8506 622.7085,87.7956 L622.7815,89.0116 C622.4685,89.1406 621.9705,89.2326 621.3455,89.2326 C620.5895,89.2326 619.9825,88.9936 619.5955,88.5516 C619.1345,88.0726 618.9685,87.2806 618.9685,86.2306 L618.9685,81.3686 L617.5875,81.3686 L617.5875,80.1346 L618.9685,80.1346 L618.9685,77.9976 L620.5525,77.5746 Z M601.1805,86.6176 C601.1805,87.5386 601.1985,88.3486 601.2535,89.0486 L599.8175,89.0486 L599.7255,87.5936 L599.6885,87.5936 C599.2655,88.3116 598.3255,89.2506 596.7415,89.2506 C595.3425,89.2506 593.6665,88.4776 593.6665,85.3466 L593.6665,80.1346 L595.2875,80.1346 L595.2875,85.0706 C595.2875,86.7646 595.8025,87.9066 597.2755,87.9066 C598.3625,87.9066 599.1175,87.1516 599.4125,86.4336 C599.5045,86.1936 599.5595,85.8986 599.5595,85.6046 L599.5595,80.1346 L601.1805,80.1346 L601.1805,86.6176 Z M569.8725,84.6096 C569.8725,86.5616 570.9965,88.0356 572.5805,88.0356 C574.1265,88.0356 575.2875,86.5806 575.2875,84.5726 C575.2875,83.0626 574.5325,81.1476 572.6165,81.1476 C570.7015,81.1476 569.8725,82.9156 569.8725,84.6096 L569.8725,84.6096 Z M576.9445,84.5176 C576.9445,87.8146 574.6615,89.2506 572.5065,89.2506 C570.0935,89.2506 568.2335,87.4826 568.2335,84.6646 C568.2335,81.6816 570.1855,79.9316 572.6535,79.9316 C575.2135,79.9316 576.9445,81.7916 576.9445,84.5176 L576.9445,84.5176 Z M545.2695,85.4756 C545.2695,85.6776 545.3065,85.8806 545.3435,86.0646 C545.6565,87.1876 546.5955,87.9616 547.7745,87.9616 C549.4685,87.9616 550.4815,86.5806 550.4815,84.5366 C550.4815,82.7496 549.5605,81.2216 547.8295,81.2216 C546.7245,81.2216 545.6935,81.9756 545.3615,83.2096 C545.3245,83.3936 545.2695,83.6156 545.2695,83.8726 L545.2695,85.4756 Z M543.5935,89.0486 C543.6305,88.4406 543.6675,87.5386 543.6675,86.7466 L543.6675,75.9726 L545.2695,75.9726 L545.2695,81.5706 L545.3065,81.5706 C545.8775,80.5766 546.9085,79.9316 548.3455,79.9316 C550.5555,79.9316 552.1205,81.7736 552.1025,84.4806 C552.1025,87.6666 550.0945,89.2506 548.1055,89.2506 C546.8165,89.2506 545.7855,88.7536 545.1225,87.5746 L545.0665,87.5746 L544.9935,89.0486 L543.5935,89.0486 Z M762.0305,66.7666 L762.0305,39.9996 L767.2885,39.9996 L778.2435,57.8746 L778.2435,39.9996 L783.2645,39.9996 L783.2645,66.7666 L777.8415,66.7666 L767.0505,49.3116 L767.0505,66.7666 L762.0305,66.7666 Z M733.2955,66.7666 L733.2955,39.9996 L753.1425,39.9996 L753.1425,44.5276 L738.7005,44.5276 L738.7005,50.4616 L752.1375,50.4616 L752.1375,54.9716 L738.7005,54.9716 L738.7005,62.2566 L753.6535,62.2566 L753.6535,66.7666 L733.2955,66.7666 Z M706.8615,66.7666 L706.8615,40.2186 L712.2655,40.2186 L712.2655,62.2566 L725.7045,62.2566 L725.7045,66.7666 L706.8615,66.7666 Z M681.3955,51.3196 L685.3935,51.3196 C687.9865,51.3196 689.6045,51.2106 690.2505,50.9916 C690.8955,50.7716 691.4005,50.3946 691.7655,49.8596 C692.1305,49.3236 692.3135,48.6546 692.3135,47.8506 C692.3135,46.9506 692.0735,46.2236 691.5915,45.6686 C691.1115,45.1156 690.4325,44.7656 689.5565,44.6196 C689.1185,44.5586 687.8035,44.5276 685.6125,44.5276 L681.3955,44.5276 L681.3955,51.3196 Z M675.9905,66.7666 L675.9905,39.9996 L687.3655,39.9996 C690.2255,39.9996 692.3035,40.2406 693.6005,40.7216 C694.8965,41.2026 695.9345,42.0576 696.7135,43.2866 C697.4925,44.5166 697.8815,45.9216 697.8815,47.5036 C697.8815,49.5126 697.2915,51.1706 696.1115,52.4786 C694.9305,53.7876 693.1655,54.6126 690.8165,54.9536 C691.9845,55.6346 692.9495,56.3836 693.7095,57.1986 C694.4705,58.0146 695.4965,59.4626 696.7865,61.5446 L700.0545,66.7666 L693.5915,66.7666 L689.6845,60.9416 C688.2965,58.8606 687.3465,57.5486 686.8355,57.0076 C686.3245,56.4656 685.7835,56.0946 685.2105,55.8936 C684.6385,55.6926 683.7325,55.5926 682.4905,55.5926 L681.3955,55.5926 L681.3955,66.7666 L675.9905,66.7666 Z M659.4175,56.1766 L655.7285,46.2446 L652.1135,56.1766 L659.4175,56.1766 Z M669.3675,66.7666 L663.4885,66.7666 L661.1515,60.6856 L650.4525,60.6856 L648.2435,66.7666 L642.5095,66.7666 L652.9355,39.9996 L658.6495,39.9996 L669.3675,66.7666 Z M610.2695,66.7666 L610.2695,39.9996 L618.3575,39.9996 L623.2145,58.2576 L628.0155,39.9996 L636.1235,39.9996 L636.1235,66.7666 L631.1015,66.7666 L631.1015,45.6966 L625.7895,66.7666 L620.5855,66.7666 L615.2905,45.6966 L615.2905,66.7666 L610.2695,66.7666 Z M575.2395,66.7666 L575.2395,55.5006 L565.4355,39.9996 L571.7705,39.9996 L578.0695,50.5896 L584.2405,39.9996 L590.4665,39.9996 L580.6255,55.5376 L580.6255,66.7666 L575.2395,66.7666 Z M542.8905,55.0996 L542.8905,62.2566 L547.8935,62.2566 C549.8405,62.2566 551.0755,62.2016 551.5995,62.0926 C552.4025,61.9456 553.0565,61.5896 553.5625,61.0236 C554.0665,60.4576 554.3195,59.7006 554.3195,58.7506 C554.3195,57.9476 554.1255,57.2666 553.7355,56.7056 C553.3455,56.1456 552.7825,55.7386 552.0465,55.4826 C551.3105,55.2266 549.7125,55.0996 547.2535,55.0996 L542.8905,55.0996 Z M542.8905,44.4546 L542.8905,50.6446 L546.4325,50.6446 C548.5385,50.6446 549.8465,50.6146 550.3575,50.5536 C551.2825,50.4436 552.0105,50.1236 552.5395,49.5946 C553.0685,49.0646 553.3335,48.3686 553.3335,47.5036 C553.3335,46.6766 553.1055,46.0036 552.6485,45.4866 C552.1925,44.9696 551.5135,44.6556 550.6135,44.5456 C550.0775,44.4856 548.5385,44.4546 545.9945,44.4546 L542.8905,44.4546 Z M537.4855,39.9996 L548.1855,39.9996 C550.3025,39.9996 551.8825,40.0886 552.9225,40.2646 C553.9635,40.4416 554.8955,40.8096 555.7165,41.3696 C556.5385,41.9296 557.2225,42.6746 557.7705,43.6056 C558.3185,44.5376 558.5915,45.5806 558.5915,46.7376 C558.5915,47.9906 558.2545,49.1416 557.5785,50.1876 C556.9035,51.2346 555.9875,52.0196 554.8315,52.5426 C556.4615,53.0176 557.7155,53.8276 558.5915,54.9716 C559.4685,56.1156 559.9065,57.4606 559.9065,59.0066 C559.9065,60.2236 559.6235,61.4076 559.0575,62.5576 C558.4915,63.7076 557.7185,64.6266 556.7385,65.3146 C555.7585,66.0026 554.5505,66.4256 553.1145,66.5836 C552.2135,66.6816 550.0415,66.7416 546.5965,66.7666 L537.4855,66.7666 L537.4855,39.9996 Z M520.9105,56.1766 L517.2225,46.2446 L513.6075,56.1766 L520.9105,56.1766 Z M530.8615,66.7666 L524.9825,66.7666 L522.6455,60.6856 L511.9465,60.6856 L509.7365,66.7666 L504.0035,66.7666 L514.4295,39.9996 L520.1445,39.9996 L530.8615,66.7666 Z M481.4045,55.0996 L481.4045,62.2566 L486.4075,62.2566 C488.3545,62.2566 489.5895,62.2016 490.1135,62.0926 C490.9165,61.9456 491.5705,61.5896 492.0765,61.0236 C492.5815,60.4576 492.8345,59.7006 492.8345,58.7506 C492.8345,57.9476 492.6395,57.2666 492.2495,56.7056 C491.8595,56.1456 491.2965,55.7386 490.5605,55.4826 C489.8245,55.2266 488.2265,55.0996 485.7685,55.0996 L481.4045,55.0996 Z M481.4045,44.4546 L481.4045,50.6446 L484.9465,50.6446 C487.0525,50.6446 488.3605,50.6146 488.8725,50.5536 C489.7965,50.4436 490.5245,50.1236 491.0535,49.5946 C491.5835,49.0646 491.8475,48.3686 491.8475,47.5036 C491.8475,46.6766 491.6195,46.0036 491.1635,45.4866 C490.7065,44.9696 490.0275,44.6556 489.1275,44.5456 C488.5915,44.4856 487.0525,44.4546 484.5085,44.4546 L481.4045,44.4546 Z M476.0005,39.9996 L486.6995,39.9996 C488.8165,39.9996 490.3965,40.0886 491.4375,40.2646 C492.4785,40.4416 493.4095,40.8096 494.2305,41.3696 C495.0525,41.9296 495.7365,42.6746 496.2845,43.6056 C496.8325,44.5376 497.1055,45.5806 497.1055,46.7376 C497.1055,47.9906 496.7685,49.1416 496.0925,50.1876 C495.4175,51.2346 494.5015,52.0196 493.3455,52.5426 C494.9765,53.0176 496.2305,53.8276 497.1055,54.9716 C497.9825,56.1156 498.4205,57.4606 498.4205,59.0066 C498.4205,60.2236 498.1375,61.4076 497.5715,62.5576 C497.0055,63.7076 496.2325,64.6266 495.2525,65.3146 C494.2725,66.0026 493.0645,66.4256 491.6285,66.5836 C490.7285,66.6816 488.5555,66.7416 485.1105,66.7666 L476.0005,66.7666 L476.0005,39.9996 Z" id="Logo"></path>
            </g>
        </g>
    </g>
</svg>