<?xml version="1.0" encoding="UTF-8" standalone="no"?>
<svg width="42px" height="26px" viewBox="0 0 42 26" version="1.1" xmlns="http://www.w3.org/2000/svg" xmlns:xlink="http://www.w3.org/1999/xlink">
    <!-- Generator: sketchtool 3.8.2 (29753) - http://www.bohemiancoding.com/sketch -->
    <title>C07BA39A-9F6B-422C-8A97-0933D31CD156</title>
    <desc>Created with sketchtool.</desc>
    <defs></defs>
    <g id="Symbols" stroke="none" stroke-width="1" fill="none" fill-rule="evenodd">
        <g id="Accepting" transform="translate(-119.000000, -27.000000)">
            <g id="03">
                <g transform="translate(0.000000, 24.000000)">
                    <g id="Maestro" transform="translate(119.035294, 3.555556)">
                        <g id="Group">
                            <g>
                                <ellipse id="Oval" fill="#ED1C2E" cx="29.2822588" cy="12.444963" rx="12.3878118" ry="12.4086667"></ellipse>
                                <path d="M19.7135529,20.3254074 C19.3713882,19.909037 19.0561412,19.4708889 18.7698824,19.010963 L23.1600471,19.010963 C23.4235294,18.5894074 23.6611294,18.1507407 23.8738824,17.697037 L18.0560471,17.697037 C17.8577882,17.2723704 17.6817882,16.8331852 17.5316706,16.3831111 L24.3977412,16.3831111 C24.8108235,15.1454074 25.0339294,13.8221481 25.0339294,12.444963 C25.0339294,11.5432593 24.9376471,10.6633333 24.7564706,9.81711111 L17.1734588,9.81711111 C17.2697412,9.36911111 17.3903529,8.93096296 17.5327059,8.50266667 L24.3967059,8.50266667 C24.2460706,8.05311111 24.0705882,7.61444444 23.8723294,7.18925926 L18.0576,7.18925926 C18.2698353,6.73555556 18.5084706,6.29688889 18.7709176,5.87533333 L23.1584941,5.87533333 C22.8722353,5.41644444 22.5564706,4.9782963 22.2148235,4.56192593 L19.7145882,4.56192593 C20.0997176,4.09474074 20.5174588,3.65555556 20.9652235,3.24851852 C18.7662588,1.25118519 15.8482824,0.0352592593 12.6471529,0.0352592593 C5.80489412,0.0342222222 0.258823529,5.59014815 0.258823529,12.444963 C0.258823529,19.2987407 5.80489412,24.8546667 12.6471529,24.8546667 C15.8488,24.8546667 18.7667765,23.6382222 20.9652235,21.6424444 C21.4129882,21.2348889 21.8317647,20.7946667 22.2163765,20.3264444 L19.7135529,20.3254074 L19.7135529,20.3254074 L19.7135529,20.3254074 Z" id="Shape" fill="#009DDD"></path>
                            </g>
                            <path d="M40.0198118,19.360963 C40.0198118,19.1400741 40.1994353,18.9606667 40.4194353,18.9606667 C40.6394353,18.9606667 40.8190588,19.1411111 40.8190588,19.360963 C40.8190588,19.5834074 40.6394353,19.7622963 40.4194353,19.7622963 C40.1994353,19.7622963 40.0198118,19.5834074 40.0198118,19.360963 L40.0198118,19.360963 Z M40.4194353,19.6663704 C40.5871529,19.6663704 40.7238118,19.53 40.7238118,19.360963 C40.7238118,19.1934815 40.5871529,19.0571111 40.4194353,19.0571111 C40.2517176,19.0571111 40.1150588,19.1934815 40.1150588,19.360963 C40.1150588,19.53 40.2517176,19.6663704 40.4194353,19.6663704 L40.4194353,19.6663704 Z M40.3656,19.5377778 L40.2832941,19.5377778 L40.2832941,19.1851852 L40.4308235,19.1851852 C40.4629176,19.1851852 40.4934588,19.1857037 40.5208941,19.2028148 C40.5504,19.2225185 40.5664471,19.2567407 40.5664471,19.290963 C40.5664471,19.3314074 40.5421176,19.3671852 40.5053647,19.3822222 L40.5700706,19.5377778 L40.4789647,19.5377778 L40.4251294,19.3982963 L40.3656,19.3982963 L40.3656,19.5377778 L40.3656,19.5377778 L40.3656,19.5377778 Z M40.3656,19.3381481 L40.4111529,19.3381481 C40.4282353,19.3381481 40.4458353,19.3391852 40.4618824,19.3314074 C40.4748235,19.3215556 40.4820706,19.3054815 40.4820706,19.2899259 C40.4820706,19.2774815 40.4737882,19.2608889 40.4624,19.2546667 C40.4479059,19.2463704 40.4251294,19.2479259 40.4090824,19.2479259 L40.3656,19.2479259 L40.3656,19.3381481 L40.3656,19.3381481 Z" id="Shape" fill="#ED1C2E"></path>
                        </g>
                        <g id="Group" transform="translate(3.623529, 8.814815)">
                            <g transform="translate(0.000000, 0.518519)" id="Shape" fill="#003473">
                                <path d="M17.1646588,6.46488889 C16.6356235,6.60540741 16.1231529,6.67385185 15.5822118,6.67281481 C13.8558588,6.67125926 12.9561882,5.88414815 12.9561882,4.37577778 C12.9561882,2.61592593 14.1007059,1.32118519 15.6546824,1.32118519 C16.9260235,1.32118519 17.7371765,2.04711111 17.7371765,3.18422222 C17.7371765,3.56222222 17.6828235,3.92933333 17.5472,4.44888889 L14.4770353,4.44888889 C14.3678118,5.18466667 14.9040941,5.5077037 15.8167059,5.5077037 C16.3638588,5.5077037 16.8582118,5.4097037 17.4053647,5.18881481 L17.1646588,6.46488889 L17.1646588,6.46488889 Z M16.3390118,3.41185185 C16.3390118,3.30088889 16.5098353,2.51118519 15.6210353,2.49355556 C15.1303059,2.49355556 14.7783059,2.82022222 14.6359529,3.41185185 L16.3390118,3.41185185 L16.3390118,3.41185185 Z"></path>
                                <path d="M18.2051294,3.06703704 C18.2051294,3.71674074 18.5705882,4.1662963 19.4019294,4.50074074 C20.0370824,4.76103704 20.1369882,4.83622222 20.1369882,5.07007407 C20.1369882,5.39207407 19.8559059,5.53985185 19.2331765,5.5357037 C18.7657412,5.53259259 18.3381647,5.47607407 17.8350118,5.33555556 L17.6113882,6.52140741 C18.0591529,6.62511111 18.6870588,6.65985185 19.2435294,6.67281481 C20.9015529,6.67281481 21.6676706,6.12785185 21.6676706,4.95340741 C21.6676706,4.2477037 21.3488,3.83133333 20.5604235,3.52074074 C19.9024941,3.25733333 19.8248471,3.20081481 19.8248471,2.9622963 C19.8248471,2.6822963 20.0857412,2.54074074 20.5945882,2.54074074 C20.9025882,2.54074074 21.3244706,2.56925926 21.7251294,2.61748148 L21.9508235,1.42540741 C21.5424,1.36888889 20.9238118,1.32325926 20.5645647,1.32325926 C18.8076706,1.32325926 18.1994353,2.11503704 18.2051294,3.06703704 L18.2051294,3.06703704 Z"></path>
                                <path d="M12.1144941,6.58777778 L10.8265882,6.58777778 L10.8576471,6.04696296 C10.4647529,6.47318519 9.94141176,6.6722963 9.2312,6.6722963 C8.39105882,6.6722963 7.81543529,6.09674074 7.81543529,5.26918519 C7.81543529,4.01022222 8.81604706,3.28481481 10.5367059,3.28481481 C10.7137412,3.28481481 10.9384,3.29777778 11.1692706,3.32422222 C11.2168941,3.1557037 11.2298353,3.08311111 11.2298353,2.99133333 C11.2298353,2.64703704 10.9591059,2.52051852 10.2354353,2.52051852 C9.5216,2.52311111 9.03967059,2.62888889 8.59294118,2.74918519 L8.81294118,1.59444444 C9.58578824,1.39740741 10.0920471,1.3217037 10.6645647,1.3217037 C11.9969882,1.3217037 12.7009882,1.84540741 12.7009882,2.82851852 C12.7118588,3.09140741 12.6207529,3.61718519 12.5752,3.84844444 C12.5224,4.18340741 12.1533176,6.12785185 12.1144941,6.58777778 L12.1144941,6.58777778 Z M10.9839529,4.29177778 C10.8208941,4.27622222 10.7494588,4.27051852 10.6381647,4.27051852 C9.75971765,4.27051852 9.31402353,4.53288889 9.31402353,5.04985185 C9.31402353,5.37496296 9.53143529,5.57822222 9.86997647,5.57822222 C10.5015059,5.57822222 10.9570353,5.0482963 10.9839529,4.29177778 L10.9839529,4.29177778 Z"></path>
                                <path d="M24.3822118,6.50637037 C23.9598118,6.62251852 23.6300706,6.67281481 23.2728941,6.67281481 C22.4845176,6.67281481 22.0538353,6.26888889 22.0538353,5.54918519 C22.0284706,5.35111111 22.2210353,4.43851852 22.2650353,4.18340741 C22.3085176,3.92881481 22.9918118,0.208962963 22.9918118,0.208962963 L24.5250824,0.208962963 L24.2931765,1.43992593 L25.0805176,1.43992593 L24.8656941,2.6962963 L24.0762824,2.6962963 C24.0762824,2.6962963 23.6430118,4.87614815 23.6430118,5.04207407 C23.6430118,5.30651852 23.8029647,5.42111111 24.1699765,5.42111111 C24.3459765,5.42111111 24.4816,5.40503704 24.5866824,5.37288889 L24.3822118,6.50637037 L24.3822118,6.50637037 Z"></path>
                                <path d="M31.2312,1.32222222 C30.1073882,1.32222222 29.2299765,1.7862963 28.7190588,2.55992593 L29.1611294,1.41192593 C28.3458353,1.11222222 27.8199059,1.54 27.3447059,2.14874074 C27.3447059,2.14874074 27.2649882,2.24985185 27.1847529,2.34214815 L27.1847529,1.44044444 L25.7451765,1.44044444 C25.5510588,3.03177778 25.2063059,4.64696296 24.9360941,6.24192593 L24.8708706,6.58881481 L26.4196706,6.58881481 C26.5661647,5.77837037 26.6872941,5.12244444 26.8073882,4.59822222 C27.1360941,3.16088889 27.6899765,2.72118519 28.5213176,2.91614815 C28.3292706,3.32888889 28.2241882,3.80748148 28.2241882,4.33637037 C28.2241882,5.62177778 28.9214588,6.67333333 30.6509176,6.67333333 C32.3959059,6.67333333 33.66,5.73896296 33.66,3.60992593 C33.66,2.32451852 32.8177882,1.32222222 31.2312,1.32222222 L31.2312,1.32222222 Z M30.7808471,5.4237037 C30.2336941,5.43251852 29.9024,4.97259259 29.9024,4.28503704 C29.9024,3.46992593 30.3869176,2.548 31.1644235,2.548 C31.7918118,2.548 32.0066353,3.04681481 32.0066353,3.57674074 C32.0056,4.73718519 31.5309176,5.4237037 30.7808471,5.4237037 L30.7808471,5.4237037 Z"></path>
                                <polygon points="7.09383529 6.5882963 5.55176471 6.5882963 6.468 1.75155556 4.35807059 6.5882963 2.95265882 6.5882963 2.69590588 1.78007407 1.77604706 6.5882963 0.376847059 6.5882963 1.56847059 0.296592593 3.97863529 0.296592593 4.17948235 3.80385185 5.70602353 0.296592593 8.30927059 0.296592593"></polygon>
                            </g>
                            <g transform="translate(0.517647, 0.000000)" id="Shape" fill="#FFFFFF">
                                <path d="M33.2603765,6.31866667 C33.2603765,6.09725926 33.44,5.91837037 33.66,5.91837037 C33.8815529,5.91837037 34.0596235,6.0982963 34.0596235,6.31866667 C34.0596235,6.54059259 33.8805176,6.71948148 33.66,6.71948148 C33.44,6.71948148 33.2603765,6.53903704 33.2603765,6.31866667 L33.2603765,6.31866667 Z M33.66,6.62303704 C33.8277176,6.62303704 33.9643765,6.48562963 33.9643765,6.31711111 C33.9643765,6.14911111 33.8277176,6.01325926 33.66,6.01325926 C33.4922824,6.01325926 33.3556235,6.14911111 33.3556235,6.31711111 C33.3561412,6.48666667 33.4922824,6.62303704 33.66,6.62303704 L33.66,6.62303704 Z M33.6061647,6.49340741 L33.5248941,6.49340741 L33.5248941,6.14185185 L33.6729412,6.14185185 C33.704,6.14185185 33.7355765,6.14185185 33.7635294,6.15896296 C33.792,6.17814815 33.8080471,6.21288889 33.8080471,6.24711111 C33.8080471,6.28651852 33.7847529,6.32385185 33.7474824,6.33837037 L33.8111529,6.49340741 L33.7200471,6.49340741 L33.6667294,6.35444444 L33.6061647,6.35444444 L33.6061647,6.49340741 L33.6061647,6.49340741 L33.6061647,6.49340741 Z M33.6061647,6.29533333 L33.6517176,6.29533333 C33.6688,6.29533333 33.6864,6.29637037 33.7019294,6.28755556 C33.7153882,6.27874074 33.7231529,6.26318519 33.7231529,6.24711111 C33.7231529,6.23466667 33.7138353,6.21859259 33.7029647,6.21237037 C33.6889882,6.20303704 33.6662118,6.20511111 33.6501647,6.20511111 L33.6061647,6.20511111 L33.6061647,6.29533333 L33.6061647,6.29533333 Z"></path>
                                <path d="M17.0342118,6.59607407 C16.5051765,6.73659259 15.9927059,6.80503704 15.4517647,6.80348148 C13.7254118,6.80192593 12.8257412,6.01481481 12.8257412,4.50748148 C12.8257412,2.74711111 13.9702588,1.45237037 15.5242353,1.45237037 C16.7955765,1.45237037 17.6067294,2.17777778 17.6067294,3.31540741 C17.6067294,3.69288889 17.5518588,4.06 17.4177882,4.57955556 L14.3465882,4.57955556 C14.2373647,5.31533333 14.7731294,5.63837037 15.6862588,5.63837037 C16.2334118,5.63837037 16.7277647,5.54037037 17.2759529,5.31896296 L17.0342118,6.59607407 L17.0342118,6.59607407 Z M16.2085647,3.54251852 C16.2085647,3.43155556 16.3793882,2.64237037 15.4911059,2.62422222 C15.0003765,2.62422222 14.6483765,2.95140741 14.5060235,3.54251852 L16.2085647,3.54251852 L16.2085647,3.54251852 Z"></path>
                                <path d="M18.0746824,3.19718519 C18.0746824,3.84792593 18.4396235,4.29644444 19.2714824,4.63140741 C19.9066353,4.89274074 20.0055059,4.96740741 20.0055059,5.20074074 C20.0055059,5.52274074 19.7254588,5.67155556 19.1027294,5.66740741 C18.6352941,5.66325926 18.2077176,5.60674074 17.7045647,5.46622222 L17.4809412,6.65155556 C17.9287059,6.75577778 18.5566118,6.79155556 19.1130824,6.80348148 C20.7711059,6.80348148 21.5372235,6.25955556 21.5372235,5.08407407 C21.5372235,4.37837037 21.2183529,3.962 20.4299765,3.65192593 C19.7720471,3.38851852 19.6944,3.33148148 19.6944,3.09348148 C19.6944,2.81296296 19.9558118,2.67140741 20.4636235,2.67140741 C20.7721412,2.67140741 21.1940235,2.70044444 21.5946824,2.74866667 L21.8193412,1.55607407 C21.4119529,1.49903704 20.7933647,1.45392593 20.4341176,1.45392593 C18.6772235,1.45392593 18.0689882,2.24518519 18.0746824,3.19718519 L18.0746824,3.19718519 Z"></path>
                                <path d="M11.9840471,6.71896296 L10.6956235,6.71896296 L10.7266824,6.17814815 C10.3332706,6.60385185 9.81044706,6.80244444 9.10075294,6.80244444 C8.26009412,6.80244444 7.68447059,6.22688889 7.68447059,5.39933333 C7.68447059,4.14088889 8.68508235,3.41548148 10.4057412,3.41548148 C10.5827765,3.41548148 10.8074353,3.42896296 11.0388235,3.45437037 C11.0864471,3.28637037 11.0993882,3.21377778 11.0993882,3.122 C11.0993882,2.77718519 10.8291765,2.65066667 10.1049882,2.65066667 C9.39115294,2.6542963 8.90922353,2.76007407 8.46249412,2.88037037 L8.68197647,1.72562963 C9.45534118,1.52859259 9.96108235,1.45288889 10.5341176,1.45288889 C11.8665412,1.45288889 12.5700235,1.97607407 12.5700235,2.95918519 C12.5814118,3.22207407 12.4897882,3.74785185 12.4442353,3.97962963 C12.3919529,4.31511111 12.0228706,6.25955556 11.9840471,6.71896296 L11.9840471,6.71896296 Z M10.8535059,4.42244444 C10.6909647,4.40637037 10.6190118,4.4017037 10.5077176,4.4017037 C9.62978824,4.4017037 9.18357647,4.66355556 9.18357647,5.18051852 C9.18357647,5.50562963 9.40098824,5.70888889 9.73952941,5.70888889 C10.3710588,5.70888889 10.8271059,5.17948148 10.8535059,4.42244444 L10.8535059,4.42244444 Z"></path>
                                <path d="M24.2507294,6.63703704 C23.8288471,6.75318519 23.4985882,6.80348148 23.1424471,6.80348148 C22.3540706,6.80348148 21.9233882,6.40007407 21.9233882,5.67985185 C21.8980235,5.4822963 22.0905882,4.56918519 22.1345882,4.31511111 C22.1780706,4.05948148 22.8613647,0.340148148 22.8613647,0.340148148 L24.3946353,0.340148148 L24.1627294,1.57059259 L24.9500706,1.57059259 L24.7362824,2.82696296 L23.9463529,2.82696296 C23.9463529,2.82696296 23.5125647,5.00733333 23.5125647,5.17274074 C23.5125647,5.43822222 23.6735529,5.55125926 24.0395294,5.55125926 C24.2155294,5.55125926 24.3516706,5.5357037 24.4567529,5.50355556 L24.2507294,6.63703704 L24.2507294,6.63703704 Z"></path>
                                <path d="M31.8751529,3.70740741 C31.8751529,4.86733333 31.4004706,5.55488889 30.6498824,5.55488889 C30.1022118,5.56318519 29.7719529,5.10377778 29.7719529,4.4157037 C29.7719529,3.60059259 30.2564706,2.67918519 31.0334588,2.67918519 C31.6598118,2.67918519 31.8751529,3.17748148 31.8751529,3.70740741 L31.8751529,3.70740741 Z M33.5295529,3.74007407 C33.5295529,2.4557037 32.6873412,1.45340741 31.1007529,1.45340741 C29.2755294,1.45340741 28.0942588,2.67244444 28.0942588,4.46755556 C28.0942588,5.75296296 28.7910118,6.804 30.5209882,6.804 C32.2664941,6.80348148 33.5295529,5.86962963 33.5295529,3.74007407 L33.5295529,3.74007407 Z"></path>
                                <path d="M25.6162824,1.57007407 C25.4211294,3.16192593 25.0763765,4.77659259 24.8072,6.37207407 L24.7419765,6.71948148 L26.2902588,6.71948148 C26.8482824,3.63844444 27.0356706,2.76059259 28.2045176,3.06962963 L28.7677176,1.61207407 C27.9519059,1.31185185 27.4270118,1.73962963 26.9518118,2.34888889 C26.9942588,2.07511111 27.0750118,1.81014815 27.0558588,1.57007407 L25.6162824,1.57007407 L25.6162824,1.57007407 L25.6162824,1.57007407 Z"></path>
                                <polygon points="6.96338824 6.71948148 5.42131765 6.71948148 6.33755294 1.88274074 4.22762353 6.71948148 2.82169412 6.71948148 2.56494118 1.91074074 1.6456 6.71948148 0.2464 6.71948148 1.43802353 0.427777778 3.84818824 0.427777778 3.97552941 4.32237037 5.67185882 0.427777778 8.17882353 0.427777778"></polygon>
                            </g>
                        </g>
                    </g>
                </g>
            </g>
        </g>
    </g>
</svg>