<?xml version="1.0" encoding="UTF-8" standalone="no"?>
<svg width="42px" height="26px" viewBox="0 0 42 26" version="1.1" xmlns="http://www.w3.org/2000/svg" xmlns:xlink="http://www.w3.org/1999/xlink">
    <!-- Generator: sketchtool 3.8.2 (29753) - http://www.bohemiancoding.com/sketch -->
    <title>86C2FC36-A060-4A8A-AE1C-84E728E52935</title>
    <desc>Created with sketchtool.</desc>
    <defs></defs>
    <g id="Symbols" stroke="none" stroke-width="1" fill="none" fill-rule="evenodd">
        <g id="Accepting" transform="translate(-66.000000, -27.000000)">
            <g id="03">
                <g transform="translate(0.000000, 24.000000)">
                    <g id="Master" transform="translate(66.035294, 3.555556)">
                        <g id="Group">
                            <g>
                                <ellipse id="Oval" fill="#ED1C2E" cx="12.6481882" cy="12.444963" rx="12.3893647" ry="12.4102222"></ellipse>
                                <path d="M29.2812235,0.0342222222 C26.0785412,0.0342222222 23.1626353,1.25066667 20.9636706,3.24696296 C20.5169412,3.65348148 20.0986824,4.09318519 19.7135529,4.56037037 L22.2163765,4.56037037 C22.5585412,4.97725926 22.8737882,5.41540741 23.1610824,5.87481481 L18.7688471,5.87481481 C18.5058824,6.29688889 18.2667294,6.73555556 18.0550118,7.18925926 L23.8744,7.18925926 C24.0731765,7.61496296 24.2486588,8.05311111 24.3992941,8.50266667 L17.5301176,8.50266667 C17.3867294,8.93096296 17.2666353,9.36911111 17.1703529,9.81659259 L24.7585412,9.81659259 C24.9412706,10.6638519 25.0370353,11.5427407 25.0370353,12.444963 C25.0370353,13.8226667 24.8123765,15.149037 24.3992941,16.3872593 L17.5301176,16.3872593 C17.6807529,16.8378519 17.8557176,17.2765185 18.0544941,17.7017037 L23.8744,17.7017037 C23.6621647,18.1554074 23.4240471,18.5940741 23.1600471,19.0156296 L18.7688471,19.0156296 C19.0551059,19.474 19.3708706,19.9121481 19.7135529,20.329037 L22.2158588,20.329037 C21.8312471,20.7962222 21.4129882,21.2364444 20.9641882,21.642963 C23.1631529,23.6387407 26.0795765,24.8541481 29.2812235,24.8541481 C36.1234824,24.8546667 41.6705882,19.2982222 41.6705882,12.4444444 C41.6705882,5.5917037 36.1234824,0.0342222222 29.2812235,0.0342222222 L29.2812235,0.0342222222 Z" id="Shape" fill="#FCB131"></path>
                            </g>
                            <path d="M40.0198118,19.3625185 C40.0198118,19.1411111 40.1994353,18.9627407 40.4194353,18.9627407 C40.6409882,18.9627407 40.8190588,19.1421481 40.8190588,19.3625185 C40.8190588,19.5844444 40.6399529,19.7633333 40.4194353,19.7633333 C40.1989176,19.7633333 40.0198118,19.5844444 40.0198118,19.3625185 L40.0198118,19.3625185 Z M40.4194353,19.6674074 C40.5866353,19.6674074 40.7232941,19.5305185 40.7232941,19.3625185 C40.7232941,19.1934815 40.5866353,19.0581481 40.4194353,19.0581481 C40.2512,19.0581481 40.1150588,19.1934815 40.1150588,19.3625185 C40.1150588,19.5305185 40.2512,19.6674074 40.4194353,19.6674074 L40.4194353,19.6674074 Z M40.3656,19.5388148 L40.2832941,19.5388148 L40.2832941,19.1867407 L40.4318588,19.1867407 C40.4634353,19.1867407 40.4944941,19.1867407 40.5224471,19.2033333 C40.5504,19.223037 40.5664471,19.2572593 40.5664471,19.292 C40.5664471,19.3319259 40.5436706,19.3682222 40.5053647,19.3832593 L40.5705882,19.5388148 L40.4794824,19.5388148 L40.4256471,19.3993333 L40.3661176,19.3993333 L40.3661176,19.5388148 L40.3656,19.5388148 L40.3656,19.5388148 Z M40.3656,19.3386667 L40.4111529,19.3386667 C40.4282353,19.3386667 40.4453176,19.3397037 40.4613647,19.3319259 C40.4748235,19.3225926 40.4825882,19.3065185 40.4825882,19.2914815 C40.4825882,19.2785185 40.4727529,19.2619259 40.4624,19.2557037 C40.4479059,19.2468889 40.4251294,19.2484444 40.4090824,19.2484444 L40.3656,19.2484444 L40.3656,19.3386667 L40.3656,19.3386667 Z" id="Shape" fill="#FCB131"></path>
                        </g>
                        <g id="Group" transform="translate(1.035294, 8.814815)">
                            <g transform="translate(0.000000, 0.518519)" id="Shape" fill="#003473">
                                <path d="M8.71976471,4.47014815 C8.57896471,4.45407407 8.51632941,4.44888889 8.41952941,4.44888889 C7.65703529,4.44888889 7.27190588,4.71125926 7.27190588,5.22874074 C7.27190588,5.54711111 7.45981176,5.74985185 7.75383529,5.74985185 C8.30150588,5.74985185 8.69647059,5.2277037 8.71976471,4.47014815 L8.71976471,4.47014815 Z M9.69811765,6.75111111 L8.58362353,6.75111111 L8.60898824,6.2217037 C8.26889412,6.64118519 7.81543529,6.8402963 7.19943529,6.8402963 C6.47058824,6.8402963 5.97054118,6.26940741 5.97054118,5.44237037 C5.97054118,4.19585185 6.83967059,3.46785185 8.33204706,3.46785185 C8.48475294,3.46785185 8.67990588,3.48185185 8.88023529,3.50725926 C8.92216471,3.33822222 8.93303529,3.26614815 8.93303529,3.17488889 C8.93303529,2.8362963 8.69905882,2.70925926 8.07063529,2.70925926 C7.41218824,2.70251852 6.86969412,2.86688889 6.64658824,2.94 C6.66056471,2.85496296 6.83294118,1.78888889 6.83294118,1.78888889 C7.50277647,1.59133333 7.94484706,1.5177037 8.44230588,1.5177037 C9.59717647,1.5177037 10.2095529,2.03674074 10.208,3.01881481 C10.2100706,3.28222222 10.1665882,3.6062963 10.0992941,4.03407407 C9.98282353,4.774 9.73176471,6.36377778 9.69811765,6.75111111 L9.69811765,6.75111111 Z"></path>
                                <polygon points="5.40785882 6.75111111 4.06249412 6.75111111 4.83327059 1.9122963 3.11261176 6.75111111 2.19637647 6.75111111 2.08301176 1.93925926 1.27289412 6.75111111 0.0139764706 6.75111111 1.06583529 0.456296296 2.99976471 0.456296296 3.11675294 3.97962963 4.29698824 0.456296296 6.44832941 0.456296296"></polygon>
                                <path d="M29.9070588,4.47014815 C29.7667765,4.45407407 29.7041412,4.44888889 29.6083765,4.44888889 C28.8453647,4.44888889 28.4602353,4.71125926 28.4602353,5.22874074 C28.4602353,5.54711111 28.6471059,5.74985185 28.9421647,5.74985185 C29.4908706,5.74985185 29.8848,5.2277037 29.9070588,4.47014815 L29.9070588,4.47014815 Z M30.8869647,6.75111111 L29.7729882,6.75111111 L29.7983529,6.2217037 C29.4587765,6.64118519 29.0048,6.8402963 28.3888,6.8402963 C27.6589176,6.8402963 27.1599059,6.26940741 27.1599059,5.44237037 C27.1599059,4.19585185 28.0300706,3.46785185 29.5214118,3.46785185 C29.6746353,3.46785185 29.8692706,3.48185185 30.0701176,3.50725926 C30.1115294,3.33822222 30.1224,3.26614815 30.1224,3.17488889 C30.1224,2.8362963 29.8889412,2.70925926 29.2610353,2.70925926 C28.6031059,2.70251852 28.0600941,2.86688889 27.8364706,2.94 C27.8504471,2.85496296 28.0233412,1.78888889 28.0233412,1.78888889 C28.6936941,1.59133333 29.1352471,1.5177037 29.6316706,1.5177037 C30.7870588,1.5177037 31.3989176,2.03674074 31.3978824,3.01881481 C31.3999529,3.28222222 31.3569882,3.6062963 31.2886588,4.03407407 C31.1716706,4.774 30.9200941,6.36377778 30.8869647,6.75111111 L30.8869647,6.75111111 Z"></path>
                                <path d="M15.6753882,6.67333333 C15.3073412,6.78948148 15.0200471,6.83874074 14.7089412,6.83874074 C14.0215059,6.83874074 13.6462118,6.44311111 13.6462118,5.71459259 C13.6363765,5.48748148 13.7450824,4.89325926 13.8304941,4.34933333 C13.9081412,3.87125926 14.4138824,0.856074074 14.4138824,0.856074074 L15.7509647,0.856074074 L15.5951529,1.63074074 L16.4026824,1.63074074 L16.2204706,2.86118519 L15.4103529,2.86118519 C15.2550588,3.83444444 15.0335059,5.04777778 15.0314353,5.20851852 C15.0314353,5.47244444 15.1717176,5.58755556 15.4921412,5.58755556 C15.6453647,5.58755556 15.7639059,5.572 15.8544941,5.53881481 L15.6753882,6.67333333 L15.6753882,6.67333333 Z"></path>
                                <path d="M19.7746353,6.63185185 C19.3149647,6.77237037 18.8723765,6.84081481 18.4028706,6.83874074 C16.9058353,6.8377037 16.1257412,6.05422222 16.1257412,4.5557037 C16.1257412,2.8057037 17.1180706,1.5177037 18.4660235,1.5177037 C19.5680941,1.5177037 20.2720941,2.23896296 20.2720941,3.36985185 C20.2720941,3.7462963 20.2234353,4.11185185 20.1074824,4.62881481 L17.4447059,4.62881481 C17.3546353,5.37185185 17.8288,5.68088889 18.6073412,5.68088889 C19.0851294,5.68088889 19.5173647,5.58237037 19.9972235,5.35940741 L19.7746353,6.63185185 L19.7746353,6.63185185 Z M19.0230118,3.59748148 C19.0307765,3.49014815 19.1643294,2.68333333 18.4008,2.68333333 C17.9752941,2.68333333 17.6704,3.00844444 17.5472,3.59748148 L19.0230118,3.59748148 L19.0230118,3.59748148 Z"></path>
                                <path d="M10.5046118,3.25059259 C10.5046118,3.89822222 10.8177882,4.34414815 11.5290353,4.67962963 C12.0736,4.93577778 12.1579765,5.01251852 12.1579765,5.24481481 C12.1579765,5.5637037 11.9177882,5.70837037 11.3856471,5.70837037 C10.9839529,5.70837037 10.6107294,5.64614815 10.1800471,5.50562963 C10.1800471,5.50562963 10.0035294,6.63444444 9.99524706,6.68785185 C10.3006588,6.75474074 10.5734588,6.81644444 11.3949647,6.83977778 C12.8143529,6.83977778 13.4696941,6.29792593 13.4696941,5.12814815 C13.4696941,4.42555556 13.1958588,4.01281481 12.5213647,3.70118519 C11.9576471,3.44296296 11.8924235,3.38437037 11.8924235,3.14533333 C11.8924235,2.86896296 12.1165647,2.72740741 12.5508706,2.72740741 C12.8148706,2.72740741 13.1756706,2.75540741 13.5173176,2.80362963 L13.7088471,1.61622222 C13.3604706,1.56074074 12.8324706,1.51666667 12.5249882,1.51666667 C11.0207059,1.5177037 10.4999529,2.30481481 10.5046118,3.25059259 L10.5046118,3.25059259 Z"></path>
                                <path d="M26.3161412,1.65251852 C26.6904,1.65251852 27.0387765,1.75 27.5181176,1.99214815 L27.7381176,0.625851852 C27.5403765,0.548074074 26.8472471,0.0933333333 26.2607529,0.0933333333 C25.3610824,0.0933333333 24.5985882,0.540814815 24.0638588,1.27918519 C23.2832471,1.01992593 22.9617882,1.54362963 22.5683765,2.06525926 L22.2189647,2.14666667 C22.2458824,1.97503704 22.2702118,1.80444444 22.2619294,1.63177778 L21.0257882,1.63177778 C20.8575529,3.21637037 20.5588706,4.82118519 20.3248941,6.4062963 L20.2632941,6.75059259 L21.6102118,6.75059259 C21.8348706,5.28940741 21.9570353,4.35348148 22.0315765,3.71881481 L22.5383529,3.43725926 C22.6139294,3.15466667 22.8510118,3.05977778 23.3256941,3.0717037 C23.2640941,3.40562963 23.2299294,3.75666667 23.2299294,4.12066667 C23.2299294,5.79496296 24.1332235,6.83822222 25.5805647,6.83822222 C25.9543059,6.83822222 26.2736941,6.78844444 26.7701176,6.65466667 L27.0056471,5.21888889 C26.5599529,5.43925926 26.1950118,5.54192593 25.8632,5.54192593 C25.0815529,5.54192593 24.6084235,4.9642963 24.6084235,4.00866667 C24.6084235,2.6237037 25.3108706,1.65251852 26.3161412,1.65251852 L26.3161412,1.65251852 Z"></path>
                                <path d="M37.7033412,0.456296296 L37.4046588,2.27474074 C37.0376471,1.79044444 36.6421647,1.43940741 36.1214118,1.43940741 C35.4422588,1.43940741 34.8252235,1.95481481 34.4209412,2.71392593 C33.8567059,2.59674074 33.2753882,2.39762963 33.2753882,2.39762963 L33.2743529,2.40281481 C33.3199059,1.97866667 33.3390588,1.72044444 33.3338824,1.6322963 L32.0977412,1.6322963 C31.9305412,3.21688889 31.6313412,4.8217037 31.3968471,6.40681481 L31.3357647,6.75111111 L32.6816471,6.75111111 C32.8643765,5.57044444 33.0020706,4.58785185 33.1040471,3.81007407 C33.5642353,3.39318519 33.7945882,3.03177778 34.2578824,3.05459259 C34.0528941,3.55340741 33.9317647,4.12688889 33.9317647,4.71540741 C33.9317647,5.99562963 34.5777882,6.8402963 35.5561412,6.8402963 C36.0494588,6.8402963 36.4278588,6.66918519 36.7964235,6.27511111 L36.7327529,6.75111111 L38.0056471,6.75111111 L39.0300706,0.456296296 L37.7033412,0.456296296 L37.7033412,0.456296296 Z M36.0215059,5.56837037 C35.5633882,5.56837037 35.332,5.22874074 35.332,4.55933333 C35.332,3.55392593 35.7652706,2.83992593 36.3760941,2.83992593 C36.8383529,2.83992593 37.0888941,3.19251852 37.0888941,3.84274074 C37.0873412,4.85696296 36.6473412,5.56837037 36.0215059,5.56837037 L36.0215059,5.56837037 Z"></path>
                            </g>
                            <g id="Shape" fill="#FFFFFF">
                                <polygon points="5.79454118 6.8962963 4.44969412 6.8962963 5.22047059 2.05748148 3.49981176 6.8962963 2.58357647 6.8962963 2.47021176 2.08548148 1.66061176 6.8962963 0.401176471 6.8962963 1.45303529 0.601481481 3.38696471 0.601481481 3.4408 4.49814815 4.74578824 0.601481481 6.83501176 0.601481481"></polygon>
                                <path d="M9.10696471,4.61481481 C8.96616471,4.59925926 8.90352941,4.59459259 8.80672941,4.59459259 C8.04423529,4.59459259 7.65858824,4.85644444 7.65858824,5.37340741 C7.65858824,5.69125926 7.84701176,5.89555556 8.14051765,5.89555556 C8.68870588,5.89555556 9.08367059,5.37237037 9.10696471,4.61481481 L9.10696471,4.61481481 Z M10.0848,6.8962963 L8.97030588,6.8962963 L8.99567059,6.36637037 C8.65609412,6.78585185 8.20211765,6.98496296 7.58611765,6.98496296 C6.85727059,6.98496296 6.35722353,6.41459259 6.35722353,5.58651852 C6.35722353,4.34051852 7.22635294,3.61303704 8.71872941,3.61303704 C8.87091765,3.61303704 9.06658824,3.62703704 9.26691765,3.65296296 C9.30832941,3.48392593 9.3192,3.41185185 9.3192,3.31955556 C9.3192,2.98096296 9.08522353,2.85496296 8.4568,2.85496296 C7.79835294,2.84718519 7.25637647,3.01155556 7.03275294,3.08466667 C7.04724706,2.99962963 7.21962353,1.93355556 7.21962353,1.93355556 C7.88945882,1.73703704 8.33152941,1.66237037 8.82950588,1.66237037 C9.98437647,1.66237037 10.5962353,2.18244444 10.5952,3.16348148 C10.5972706,3.42688889 10.5537882,3.752 10.4864941,4.17874074 C10.3700235,4.91866667 10.1194824,6.51 10.0848,6.8962963 L10.0848,6.8962963 Z"></path>
                                <path d="M28.1253176,0.771037037 L27.9048,2.13733333 C27.4239059,1.89518519 27.0760471,1.7977037 26.7033412,1.7977037 C25.6996235,1.7977037 24.9945882,2.76992593 24.9945882,4.15644444 C24.9945882,5.11155556 25.4682353,5.68866667 26.2504,5.68866667 C26.5822118,5.68866667 26.9481882,5.58651852 27.3928471,5.36562963 L27.1562824,6.80140741 C26.6608941,6.93622222 26.3409882,6.98496296 25.9677647,6.98496296 C24.5193882,6.98496296 23.6176471,5.9417037 23.6176471,4.26792593 C23.6176471,2.01755556 24.8646588,0.44437037 26.6469176,0.44437037 C27.2339294,0.443851852 27.9280941,0.693777778 28.1253176,0.771037037 L28.1253176,0.771037037 Z"></path>
                                <path d="M30.2942588,4.61481481 C30.1539765,4.59925926 30.0913412,4.59459259 29.9950588,4.59459259 C29.2325647,4.59459259 28.8464,4.85644444 28.8464,5.37340741 C28.8464,5.69125926 29.0348235,5.89555556 29.3293647,5.89555556 C29.8770353,5.89555556 30.272,5.37237037 30.2942588,4.61481481 L30.2942588,4.61481481 Z M31.2736471,6.8962963 L30.1601882,6.8962963 L30.1855529,6.36637037 C29.8459765,6.78585185 29.392,6.98496296 28.7754824,6.98496296 C28.0461176,6.98496296 27.5471059,6.41459259 27.5471059,5.58651852 C27.5471059,4.34051852 28.4162353,3.61303704 29.9086118,3.61303704 C30.0613176,3.61303704 30.2564706,3.62703704 30.4568,3.65296296 C30.4982118,3.48392593 30.5096,3.41185185 30.5096,3.31955556 C30.5096,2.98096296 30.2761412,2.85496296 29.6472,2.85496296 C28.9892706,2.84718519 28.4478118,3.01155556 28.2236706,3.08466667 C28.2376471,2.99962963 28.4100235,1.93355556 28.4100235,1.93355556 C29.0803765,1.73703704 29.5214118,1.66237037 30.0193882,1.66237037 C31.1742588,1.66237037 31.7861176,2.18244444 31.7840471,3.16348148 C31.7876706,3.42688889 31.7436706,3.752 31.6758588,4.17874074 C31.5588706,4.91866667 31.3072941,6.51 31.2736471,6.8962963 L31.2736471,6.8962963 Z"></path>
                                <path d="M16.0625882,6.81748148 C15.6945412,6.93414815 15.4077647,6.98444444 15.0966588,6.98444444 C14.4092235,6.98444444 14.0334118,6.58777778 14.0334118,5.85977778 C14.0235765,5.63266667 14.1322824,5.03844444 14.2176941,4.49503704 C14.2953412,4.01592593 14.8010824,1.00125926 14.8010824,1.00125926 L16.1381647,1.00125926 L15.9818353,1.77644444 L16.6677176,1.77644444 L16.4849882,3.00637037 L15.7965176,3.00637037 C15.6412235,3.98066667 15.4196706,5.19296296 15.4170824,5.3537037 C15.4170824,5.61814815 15.5578824,5.73222222 15.8777882,5.73222222 C16.0310118,5.73222222 16.1495529,5.71718519 16.2401412,5.684 L16.0625882,6.81748148 L16.0625882,6.81748148 Z"></path>
                                <path d="M20.1618353,6.77703704 C19.7026824,6.91755556 19.2590588,6.98444444 18.7900706,6.98444444 C17.2930353,6.98288889 16.5134588,6.19940741 16.5134588,4.70088889 C16.5134588,2.95088889 17.5057882,1.66237037 18.8527059,1.66237037 C19.9558118,1.66237037 20.6598118,2.38362963 20.6598118,3.51555556 C20.6598118,3.89096296 20.6106353,4.25755556 20.4952,4.77451852 L17.8329412,4.77451852 C17.7423529,5.51755556 18.2170353,5.82711111 18.9945412,5.82711111 C19.4728471,5.82711111 19.9045647,5.72807407 20.3849412,5.50407407 L20.1618353,6.77703704 L20.1618353,6.77703704 Z M19.4107294,3.74214815 C19.4179765,3.63533333 19.5520471,2.82851852 18.788,2.82851852 C18.3624941,2.82851852 18.0576,3.15414815 17.9338824,3.74214815 L19.4107294,3.74214815 L19.4107294,3.74214815 Z"></path>
                                <path d="M10.8918118,3.39525926 C10.8918118,4.04340741 11.2055059,4.48881481 11.9162353,4.82585185 C12.4608,5.08148148 12.5446588,5.15822222 12.5446588,5.39 C12.5446588,5.70888889 12.3044706,5.85407407 11.7723294,5.85407407 C11.3711529,5.85407407 10.9974118,5.79133333 10.5667294,5.65237037 C10.5667294,5.65237037 10.3902118,6.78066667 10.3824471,6.83303704 C10.6878588,6.89992593 10.9606588,6.96162963 11.7821647,6.98496296 C13.2015529,6.98496296 13.8568941,6.44362963 13.8568941,5.27385185 C13.8568941,4.57074074 13.5825412,4.15851852 12.9085647,3.84792593 C12.3448471,3.58762963 12.2801412,3.53059259 12.2801412,3.29155556 C12.2801412,3.01466667 12.5037647,2.87207407 12.9380706,2.87207407 C13.2015529,2.87207407 13.5628706,2.90162963 13.9045176,2.94985185 L14.0960471,1.76244444 C13.7476706,1.70748148 13.2196706,1.66237037 12.9121882,1.66237037 C11.4079059,1.66237037 10.8871529,2.44948148 10.8918118,3.39525926 L10.8918118,3.39525926 Z"></path>
                                <path d="M38.3928471,6.8962963 L37.1204706,6.8962963 L37.1831059,6.41977778 C36.8140235,6.81488889 36.4366588,6.98496296 35.9428235,6.98496296 C34.9649882,6.98496296 34.3184471,6.14133333 34.3184471,4.86059259 C34.3184471,3.15777778 35.3211294,1.72251852 36.5070588,1.72251852 C37.0293647,1.72251852 37.4238118,1.93562963 37.7913412,2.42096296 L38.0895059,0.601481481 L39.4162353,0.601481481 L38.3928471,6.8962963 L38.3928471,6.8962963 Z M36.4081882,5.71407407 C37.0350588,5.71407407 37.4750588,5.00318519 37.4750588,3.98844444 C37.4750588,3.33874074 37.2255529,2.98459259 36.7622588,2.98459259 C36.1519529,2.98459259 35.7192,3.69807407 35.7192,4.70451852 C35.7192,5.37444444 35.9511059,5.71407407 36.4081882,5.71407407 L36.4081882,5.71407407 Z"></path>
                                <path d="M32.4854588,1.77748148 C32.3177412,3.36207407 32.0185412,4.96637037 31.7840471,6.552 L31.7224471,6.8962963 L33.0678118,6.8962963 C33.5502588,3.76548148 33.6646588,3.15466667 34.4199059,3.23140741 C34.5394824,2.59051852 34.7636235,2.02948148 34.9297882,1.74637037 C34.3665882,1.62866667 34.0523765,1.94807407 33.6398118,2.5537037 C33.6724235,2.29185185 33.7324706,2.03725926 33.7205647,1.77748148 L32.4854588,1.77748148 L32.4854588,1.77748148 Z"></path>
                                <path d="M21.4135059,1.77748148 C21.2447529,3.36207407 20.9450353,4.96637037 20.7115765,6.552 L20.6504941,6.8962963 L21.9968941,6.8962963 C22.4783059,3.76548148 22.5937412,3.15466667 23.3469176,3.23140741 C23.4675294,2.59051852 23.6927059,2.02948148 23.8583529,1.74637037 C23.2951529,1.62866667 22.9809412,1.94807407 22.5683765,2.5537037 C22.6009882,2.29185185 22.6615529,2.03725926 22.6486118,1.77748148 L21.4135059,1.77748148 L21.4135059,1.77748148 Z"></path>
                                <path d="M38.9834824,6.49548148 C38.9834824,6.27251852 39.1641412,6.09414815 39.3831059,6.09414815 C39.6046588,6.09414815 39.7827294,6.27407407 39.7827294,6.49548148 C39.7827294,6.71585185 39.6036235,6.89525926 39.3831059,6.89525926 C39.1631059,6.8962963 38.9834824,6.71585185 38.9834824,6.49548148 L38.9834824,6.49548148 Z M39.3831059,6.79985185 C39.5513412,6.79985185 39.6874824,6.66244444 39.6874824,6.49548148 C39.6874824,6.32696296 39.5513412,6.18955556 39.3831059,6.18955556 C39.2153882,6.18955556 39.0792471,6.32696296 39.0792471,6.49548148 C39.0792471,6.664 39.2153882,6.79985185 39.3831059,6.79985185 L39.3831059,6.79985185 Z M39.3292706,6.67022222 L39.2474824,6.67022222 L39.2474824,6.31814815 L39.3970824,6.31814815 C39.4281412,6.31814815 39.4586824,6.31918519 39.4861176,6.3362963 C39.5156235,6.35496296 39.5311529,6.3897037 39.5311529,6.42444444 C39.5311529,6.46333333 39.5083765,6.50066667 39.4705882,6.5157037 L39.5352941,6.6697037 L39.4441882,6.6697037 L39.3903529,6.53074074 L39.3308235,6.53074074 L39.3308235,6.67022222 L39.3292706,6.67022222 L39.3292706,6.67022222 Z M39.3292706,6.47111111 L39.3748235,6.47111111 C39.3919059,6.47111111 39.4100235,6.47214815 39.4255529,6.46333333 C39.4384941,6.45503704 39.4457412,6.43792593 39.4457412,6.42340741 C39.4457412,6.41044444 39.4374588,6.39437037 39.4260706,6.38711111 C39.4126118,6.37881481 39.3893176,6.38088889 39.3737882,6.38088889 L39.3292706,6.38088889 L39.3292706,6.47111111 L39.3292706,6.47111111 Z"></path>
                            </g>
                        </g>
                    </g>
                </g>
            </g>
        </g>
    </g>
</svg>