<?xml version="1.0" encoding="UTF-8" standalone="no"?>
<svg width="18px" height="12px" viewBox="0 0 18 12" version="1.1" xmlns="http://www.w3.org/2000/svg" xmlns:xlink="http://www.w3.org/1999/xlink">
    <!-- Generator: sketchtool 3.8.2 (29753) - http://www.bohemiancoding.com/sketch -->
    <title>62593311-6A8A-4AF8-AA37-01C7B1C2A961</title>
    <desc>Created with sketchtool.</desc>
    <defs></defs>
    <g id="Main" stroke="none" stroke-width="1" fill="none" fill-rule="evenodd">
        <g id="Main-1260" transform="translate(-283.000000, -3372.000000)" fill="#9B9B9B">
            <g id="Blog" transform="translate(1.000000, 2856.000000)">
                <g id="01">
                    <g id="More" transform="translate(282.000000, 516.000000)">
                        <path d="M12.3954984,2.06057393e-13 C12.2893891,2.06057393e-13 12.192926,0.0387096774 12.1157556,0.116129032 C11.9614148,0.270967742 11.9614148,0.522580645 12.1157556,0.677419355 L17.0353698,5.61290323 L12.1157556,10.5483871 C11.9614148,10.7032258 11.9614148,10.9548387 12.1157556,11.1096774 C12.2700965,11.2645161 12.5209003,11.2645161 12.6752412,11.1096774 L17.8842444,5.89354839 C18.0385852,5.73870968 18.0385852,5.48709677 17.8842444,5.33225806 L12.6752412,0.116129032 C12.5980707,0.0387096774 12.5016077,2.06057393e-13 12.3954984,2.06057393e-13 Z M6.39549839,2.06057393e-13 C6.28938907,2.06057393e-13 6.19292605,0.0387096774 6.11575563,0.116129032 C5.96141479,0.270967742 5.96141479,0.522580645 6.11575563,0.677419355 L11.0353698,5.61290323 L6.11575563,10.5483871 C5.96141479,10.7032258 5.96141479,10.9548387 6.11575563,11.1096774 C6.27009646,11.2645161 6.52090032,11.2645161 6.67524116,11.1096774 L11.8842444,5.89354839 C12.0385852,5.73870968 12.0385852,5.48709677 11.8842444,5.33225806 L6.67524116,0.116129032 C6.59807074,0.0387096774 6.50160772,2.06057393e-13 6.39549839,2.06057393e-13 Z M0.395498392,2.06057393e-13 C0.289389068,2.06057393e-13 0.192926045,0.0387096774 0.115755627,0.116129032 C-0.038585209,0.270967742 -0.038585209,0.522580645 0.115755627,0.677419355 L5.03536977,5.61290323 L0.115755627,10.5483871 C-0.038585209,10.7032258 -0.038585209,10.9548387 0.115755627,11.1096774 C0.270096463,11.2645161 0.520900322,11.2645161 0.675241158,11.1096774 L5.88424437,5.89354839 C6.03858521,5.73870968 6.03858521,5.48709677 5.88424437,5.33225806 L0.675241158,0.116129032 C0.59807074,0.0387096774 0.501607717,2.06057393e-13 0.395498392,2.06057393e-13 Z"></path>
                    </g>
                </g>
            </g>
        </g>
    </g>
</svg>