<?xml version="1.0" encoding="UTF-8" standalone="no"?>
<svg width="24px" height="23px" viewBox="0 0 24 23" version="1.1" xmlns="http://www.w3.org/2000/svg" xmlns:xlink="http://www.w3.org/1999/xlink">
    <!-- Generator: sketchtool 3.8.2 (29753) - http://www.bohemiancoding.com/sketch -->
    <title>5D870254-C2AA-49C7-BE8F-27130A2893D2</title>
    <desc>Created with sketchtool.</desc>
    <defs>
        <filter x="-50%" y="-50%" width="200%" height="200%" filterUnits="objectBoundingBox" id="filter-1">
            <feOffset dx="0" dy="1" in="SourceAlpha" result="shadowOffsetOuter1"></feOffset>
            <feColorMatrix values="0 0 0 0 0   0 0 0 0 0   0 0 0 0 0  0 0 0 0.07 0" type="matrix" in="shadowOffsetOuter1" result="shadowMatrixOuter1"></feColorMatrix>
            <feMerge>
                <feMergeNode in="shadowMatrixOuter1"></feMergeNode>
                <feMergeNode in="SourceGraphic"></feMergeNode>
            </feMerge>
        </filter>
    </defs>
    <g id="Symbols" stroke="none" stroke-width="1" fill="none" fill-rule="evenodd">
        <g id="Top-1260" transform="translate(-1051.000000, -50.000000)" fill="#000000">
            <g id="Top" filter="url(#filter-1)">
                <g id="Icons02" transform="translate(1051.000000, 47.000000)">
                    <path d="M11.5309722,15.3465517 C14.9503709,15.3465517 17.7238831,12.5775862 17.7238831,9.1637931 C17.7238831,5.75 14.9503709,3 11.5309722,3 C8.11157352,3 5.33806126,5.76896552 5.33806126,9.1637931 C5.33806126,12.5586207 8.11157352,15.3465517 11.5309722,15.3465517 L11.5309722,15.3465517 Z M11.5309722,4.61206897 C14.0385312,4.61206897 16.0901704,6.66034483 16.0901704,9.1637931 C16.0901704,11.6672414 14.0385312,13.7155172 11.5309722,13.7155172 C9.02341317,13.7155172 6.97177397,11.6672414 6.97177397,9.1637931 C6.97177397,6.66034483 9.02341317,4.61206897 11.5309722,4.61206897 Z M0.81685635,25 L22.3210747,25 C22.7769945,25 23.137931,24.6396552 23.137931,24.1844828 C23.137931,19.9172414 19.6615424,16.4275862 15.3682974,16.4275862 L7.76963366,16.4275862 C3.49538531,16.4275862 0,19.8982759 0,24.1844828 C-2.53086343e-16,24.6396552 0.360936527,25 0.81685635,25 L0.81685635,25 Z M7.76963366,18.0586207 L15.3682974,18.0586207 C18.4837495,18.0586207 21.0482985,20.3724138 21.4472284,23.3689655 L1.69070268,23.3689655 C2.08963252,20.3913793 4.65418153,18.0586207 7.76963366,18.0586207 Z" id="profile"></path>
                </g>
            </g>
        </g>
    </g>
</svg>