<?xml version="1.0" encoding="UTF-8" standalone="no"?>
<svg width="101px" height="86px" viewBox="0 0 101 86" version="1.1" xmlns="http://www.w3.org/2000/svg" xmlns:xlink="http://www.w3.org/1999/xlink">
    <!-- Generator: sketchtool 3.8.2 (29753) - http://www.bohemiancoding.com/sketch -->
    <title>0A254BAE-1F85-4ADB-95BD-3F4285503581</title>
    <desc>Created with sketchtool.</desc>
    <defs></defs>
    <g id="Main" stroke="none" stroke-width="1" fill="none" fill-rule="evenodd">
        <g id="Main-1260" transform="translate(-179.000000, -3562.000000)" fill="#F3F3F3">
            <g id="Subscribe" transform="translate(1.000000, 3502.000000)">
                <path d="M179.006149,142.900901 C179.006149,142.986987 179.006149,143.073073 179.092297,143.245245 C179.092297,143.331331 179.178446,143.503504 179.178446,143.58959 C179.178446,143.675676 179.264594,143.761762 179.264594,143.933934 C179.350743,144.02002 179.350743,144.106106 179.436891,144.278278 C179.52304,144.364364 179.52304,144.45045 179.609188,144.536537 C179.695337,144.622623 179.781485,144.708709 179.781485,144.794795 C179.867634,144.880881 179.953782,144.966967 180.039931,145.053053 L180.126079,145.139139 C180.126079,145.139139 180.212228,145.139139 180.212228,145.225225 C180.470674,145.483483 180.815268,145.655656 181.159862,145.741742 C181.24601,145.741742 181.24601,145.741742 181.332159,145.827828 C181.676753,145.913914 182.021347,146 182.365941,146 L182.365941,146 L275.320207,146 L275.320207,146 C275.664801,146 276.009396,145.913914 276.35399,145.827828 C276.440138,145.827828 276.440138,145.827828 276.526287,145.741742 C276.870881,145.56957 277.215475,145.397397 277.473921,145.225225 C277.473921,145.225225 277.560069,145.225225 277.560069,145.139139 L277.646218,145.053053 C277.732366,144.966967 277.818515,144.880881 277.904663,144.794795 C277.990812,144.708709 278.07696,144.622623 278.07696,144.536537 C278.163109,144.45045 278.163109,144.364364 278.249257,144.278278 C278.335406,144.192192 278.335406,144.106106 278.421554,143.933934 C278.507703,143.847848 278.507703,143.761762 278.507703,143.58959 C278.507703,143.503504 278.593851,143.331331 278.593851,143.245245 C278.593851,143.159159 278.68,143.073073 278.68,142.900901 L278.68,142.556557 L278.68,142.384384 L278.68,63.5295295 C278.68,61.5495495 277.129326,60 275.14791,60 L182.45209,60 C180.470674,60 178.92,61.5495495 178.92,63.5295295 L178.92,142.384384 L178.92,142.556557 C179.006149,142.642643 179.006149,142.728729 179.006149,142.900901 L179.006149,142.900901 Z M190.033161,138.854855 L216.136166,107.691692 L226.990881,115.267267 C227.593921,115.697698 228.283109,115.86987 228.972297,115.86987 C229.661485,115.86987 230.350674,115.697698 230.953713,115.267267 L241.808428,107.691692 L267.911434,138.854855 L190.033161,138.854855 L190.033161,138.854855 Z M271.960415,132.656657 L247.58038,103.645646 L271.874266,86.6866867 L271.874266,132.656657 L271.960415,132.656657 Z M186.070328,67.0590591 L271.960415,67.0590591 L271.960415,78.1641642 L229.058446,108.036036 L186.070328,78.1641642 L186.070328,67.0590591 L186.070328,67.0590591 Z M186.070328,86.6866867 L210.364214,103.645646 L186.070328,132.656657 L186.070328,86.6866867 L186.070328,86.6866867 Z" id="envelope"></path>
            </g>
        </g>
    </g>
</svg>