<?xml version="1.0" encoding="UTF-8" standalone="no"?>
<svg width="21px" height="21px" viewBox="0 0 21 21" version="1.1" xmlns="http://www.w3.org/2000/svg" xmlns:xlink="http://www.w3.org/1999/xlink">
    <!-- Generator: sketchtool 3.8.2 (29753) - http://www.bohemiancoding.com/sketch -->
    <title>37D23672-8CAD-4DC2-9050-189EDF90195D</title>
    <desc>Created with sketchtool.</desc>
    <defs></defs>
    <g id="Symbols" stroke="none" stroke-width="1" fill="none" fill-rule="evenodd">
        <g id="Footer-1260" transform="translate(-1226.000000, -10.000000)" fill="#FFFFFF">
            <g id="Footer">
                <g id="UP" transform="translate(1216.000000, 0.000000)">
                    <path d="M21.0276265,10.2168675 C20.90108,10.0903614 20.7022212,10 20.5033623,10 C20.3045035,10 20.1056446,10.0903614 19.9790981,10.2168675 L10.2169369,19.9759036 C9.92768769,20.2650602 9.92768769,20.7349398 10.2169369,21.0240964 C10.3615615,21.1686747 10.5423423,21.2409639 10.7412011,21.2409639 C10.94006,21.2409639 11.1208407,21.1686747 11.2654653,21.0240964 L19.7621612,12.5301205 L19.7621612,30.2590361 C19.7621612,30.6746988 20.0875666,31 20.5033623,31 C20.9191581,31 21.2445634,30.6746988 21.2445634,30.2590361 L21.2445634,12.5301205 L29.7412593,21.0240964 C30.0305085,21.313253 30.5005385,21.313253 30.7897877,21.0240964 C31.0790369,20.7349398 31.0609589,20.2650602 30.7897877,19.9759036 L21.0276265,10.2168675 Z" id="up-arrow"></path>
                </g>
            </g>
        </g>
    </g>
</svg>