<?xml version="1.0" encoding="UTF-8" standalone="no"?>
<svg width="54px" height="18px" viewBox="0 0 54 18" version="1.1" xmlns="http://www.w3.org/2000/svg" xmlns:xlink="http://www.w3.org/1999/xlink">
    <!-- Generator: sketchtool 3.8.2 (29753) - http://www.bohemiancoding.com/sketch -->
    <title>1375537A-476A-475D-960F-163D17D5FB93</title>
    <desc>Created with sketchtool.</desc>
    <defs></defs>
    <g id="Symbols" stroke="none" stroke-width="1" fill="none" fill-rule="evenodd">
        <g id="Accepting" transform="translate(0.000000, -31.000000)">
            <g id="03">
                <g transform="translate(0.000000, 24.000000)">
                    <g id="VISA" transform="translate(0.631933, 7.350638)">
                        <polygon id="Shape" fill="#00589F" points="18.9745982 16.5063961 21.6518006 0.761374914 25.9384999 0.761374914 23.2560052 16.5063961"></polygon>
                        <path d="M38.7972748,1.14902011 C37.9485348,0.829626974 36.6175411,0.487041394 34.9557836,0.487041394 C30.7233296,0.487041394 27.7398398,2.62273447 27.7140402,5.68347488 C27.6908867,7.94573246 29.8434978,9.20806424 31.4688713,9.96148746 C33.1365825,10.7341273 33.697558,11.2258072 33.6909427,11.9156168 C33.6777121,12.9705418 32.3573029,13.4509568 31.1248769,13.4509568 C29.4108587,13.4509568 28.4999351,13.2150565 27.0928657,12.6259683 L26.5411516,12.3754899 L25.939823,15.9007419 C26.9393913,16.3394105 28.7903457,16.719104 30.7127451,16.7403085 C35.2184101,16.7403085 38.1397163,14.6284705 38.1727927,11.3603234 C38.1893309,9.57052906 37.0488572,8.20681315 34.5767282,7.08297342 C33.077045,6.35274265 32.1601677,5.86768918 32.1687675,5.130832 C32.1687675,4.4754797 32.9460625,3.77639307 34.6236967,3.77639307 C36.0234893,3.75320062 37.0395958,4.06000357 37.8287983,4.3793967 L38.2151304,4.56162307 L38.7972748,1.14902011 L38.7972748,1.14902011 L38.7972748,1.14902011 Z" id="Shape" fill="#00589F"></path>
                        <path d="M49.7839263,0.776615666 L46.4736419,0.776615666 C45.4476124,0.776615666 44.6802404,1.05691296 44.2290785,2.08201913 L37.8671669,16.5130225 L42.3668781,16.5130225 C42.3668781,16.5130225 43.0998507,14.5728086 43.2678788,14.1460676 C43.7587323,14.1460676 48.1301072,14.1540193 48.7552508,14.1540193 C48.8816026,14.7053369 49.2758731,16.5143478 49.2758731,16.5143478 L53.2529774,16.5143478 L49.7839263,0.776615666 L49.7839263,0.776615666 L49.7839263,0.776615666 Z M44.5009664,10.9256306 C44.8562067,10.0184746 46.2077077,6.52436676 46.2077077,6.52436676 C46.1845543,6.56545052 46.5596405,5.61190962 46.7752985,5.02083353 L47.0650476,6.37792302 C47.0650476,6.37792302 47.8840189,10.1370874 48.0573391,10.9256306 L44.5009664,10.9256306 L44.5009664,10.9256306 L44.5009664,10.9256306 Z" id="Shape" fill="#00589F"></path>
                        <path d="M15.3805183,0.773302459 L11.1851098,11.5114056 L10.7365941,9.32932761 C9.95731449,6.81327839 7.52421572,4.08783451 4.80335241,2.7241186 L8.63888984,16.4964565 L13.172339,16.4891674 L19.9185981,0.773302459 L15.3805183,0.773302459 L15.3805183,0.773302459 L15.3805183,0.773302459 Z" id="Shape" fill="#00589F"></path>
                        <path d="M7.29466562,0.763362838 L0.383686049,0.763362838 L0.330763835,1.09070767 C5.70567615,2.39478585 9.26271043,5.54498284 10.7372556,9.32932761 L9.23624933,2.09328403 C8.97759201,1.09534616 8.22477352,0.79848283 7.29466562,0.763362838 L7.29466562,0.763362838 L7.29466562,0.763362838 Z" id="Shape" fill="#F9A51A"></path>
                    </g>
                </g>
            </g>
        </g>
    </g>
</svg>