<?xml version="1.0" encoding="UTF-8" standalone="no"?>
<svg width="519px" height="82px" viewBox="0 0 519 82" version="1.1" xmlns="http://www.w3.org/2000/svg" xmlns:xlink="http://www.w3.org/1999/xlink">
    <!-- Generator: sketchtool 3.8.2 (29753) - http://www.bohemiancoding.com/sketch -->
    <title>4459E803-C59A-42CD-8D48-DC9C07A508BD</title>
    <desc>Created with sketchtool.</desc>
    <defs></defs>
    <g id="Main" stroke="none" stroke-width="1" fill="none" fill-rule="evenodd">
        <g id="Main-1260" transform="translate(0.000000, -564.000000)" fill="#FFFFFF">
            <g id="Slide" transform="translate(0.000000, 204.000000)">
                <g id="Banner" transform="translate(-29.000000, 68.000000)">
                    <g id="Waves" transform="translate(0.000000, 292.000000)">
                        <path d="M273,52.5324338 L273,52.5950338 C364.471391,119.282865 455.976673,-14.0927968 547.481954,52.5950338 L547.481954,19.2511185 C456.504365,-47.0767027 365.49325,84.5047416 274.481954,20.3137186 L274.481954,20.2511185 C183.010563,-46.4367122 91.5052817,86.9389492 0,20.2511185 L0,53.5950338 C90.9775891,119.922855 181.988704,-11.6585893 273,52.5324338 Z" id="Combined-Shape"></path>
                        <path d="M273,119.532434 L273,119.595034 C364.471391,186.282865 455.976673,52.9072032 547.481954,119.595034 L547.481954,86.2511185 C456.504365,19.9232973 365.49325,151.504742 274.481954,87.3137186 L274.481954,87.2511185 C183.010563,20.5632878 91.5052817,153.938949 0,87.2511185 L0,120.595034 C90.9775891,186.922855 181.988704,55.3414107 273,119.532434 Z" id="Combined-Shape"></path>
                    </g>
                </g>
            </g>
        </g>
    </g>
</svg>